<svg width="100" height="100" viewBox="0 0 100 100" fill="none" xmlns="http://www.w3.org/2000/svg">
<path d="M99.2107 93.7444C99.1081 93.7444 99.0065 93.7243 98.9117 93.685C98.8169 93.6458 98.7308 93.5882 98.6583 93.5157C98.5857 93.4431 98.5282 93.357 98.489 93.2622C98.4498 93.1674 98.4296 93.0657 98.4297 92.9631V49.2188C98.4297 48.7872 98.7789 48.4377 99.2107 48.4377C99.6426 48.4377 99.992 48.7872 99.992 49.2188V92.9631C99.992 93.395 99.6426 93.7444 99.2107 93.7444ZM96.0893 96.869H3.91055C3.80795 96.869 3.70634 96.8489 3.61154 96.8096C3.51675 96.7704 3.43061 96.7128 3.35807 96.6403C3.28553 96.5677 3.22801 96.4816 3.18879 96.3868C3.14956 96.292 3.12942 96.1903 3.12949 96.0877C3.12944 95.9852 3.14961 95.8836 3.18884 95.7888C3.22808 95.694 3.28561 95.6079 3.35814 95.5353C3.43068 95.4628 3.5168 95.4053 3.61159 95.366C3.70637 95.3268 3.80796 95.3066 3.91055 95.3067H96.0891C96.5209 95.3067 96.8703 95.6561 96.8703 96.0877C96.8704 96.1904 96.8503 96.292 96.8111 96.3868C96.7719 96.4816 96.7143 96.5678 96.6418 96.6403C96.5692 96.7129 96.4831 96.7704 96.3883 96.8097C96.2935 96.8489 96.1919 96.8691 96.0893 96.869ZM0.785938 93.7444C0.683337 93.7444 0.581733 93.7243 0.486935 93.685C0.392137 93.6458 0.306005 93.5882 0.233465 93.5157C0.160925 93.4431 0.103399 93.357 0.0641766 93.2622C0.0249546 93.1674 0.00480601 93.0657 0.00488303 92.9631V42.9696C0.00488303 42.5379 0.354297 42.1883 0.785938 42.1883C1.21777 42.1883 1.56719 42.5377 1.56719 42.9696V92.9629C1.56726 93.0656 1.54711 93.1672 1.50788 93.262C1.46865 93.3569 1.41111 93.443 1.33855 93.5156C1.26599 93.5882 1.17984 93.6457 1.08502 93.685C0.990194 93.7243 0.888564 93.7444 0.785938 93.7444ZM92.9615 40.6262C92.8589 40.6263 92.7574 40.6061 92.6626 40.5669C92.5678 40.5276 92.4817 40.4701 92.4091 40.3976C92.3366 40.325 92.2791 40.2389 92.2398 40.1441C92.2006 40.0493 92.1804 39.9478 92.1805 39.8452V10.9424H7.81484V39.845C7.81484 40.2766 7.46543 40.626 7.03359 40.626C6.60176 40.626 6.25234 40.2766 6.25234 39.845V10.1614C6.25234 9.72954 6.60176 9.38013 7.03359 9.38013H92.9613C93.3932 9.38013 93.7426 9.72954 93.7426 10.1614V39.845C93.7427 39.9476 93.7225 40.0492 93.6833 40.144C93.6441 40.2388 93.5866 40.325 93.5141 40.3976C93.4415 40.4701 93.3554 40.5277 93.2606 40.5669C93.1657 40.6061 93.0641 40.6263 92.9615 40.6262Z" fill="black"/>
<path d="M28.1246 37.5016C22.0951 37.5016 17.1885 32.5957 17.1885 26.5656C17.1885 20.5354 22.0951 15.6295 28.1246 15.6295C34.1541 15.6295 39.0605 20.5354 39.0605 26.5656C39.0605 32.5957 34.1541 37.5016 28.1246 37.5016ZM28.1246 17.1916C22.9555 17.1916 18.7508 21.3963 18.7508 26.5655C18.7508 31.7344 22.9555 35.9391 28.1246 35.9391C33.2936 35.9391 37.4982 31.7344 37.4982 26.5655C37.4982 21.3965 33.2936 17.1916 28.1246 17.1916ZM82.0254 23.441H47.6531C47.5505 23.4411 47.4489 23.4209 47.3541 23.3817C47.2593 23.3424 47.1732 23.2849 47.1007 23.2123C47.0281 23.1398 46.9706 23.0536 46.9314 22.9588C46.8921 22.864 46.872 22.7624 46.8721 22.6598C46.872 22.5572 46.8922 22.4556 46.9314 22.3608C46.9707 22.266 47.0282 22.1799 47.1007 22.1074C47.1733 22.0348 47.2594 21.9773 47.3542 21.9381C47.449 21.8989 47.5505 21.8787 47.6531 21.8787H82.0252C82.457 21.8787 82.8064 22.2281 82.8064 22.6598C82.8065 22.7624 82.7864 22.864 82.7472 22.9588C82.708 23.0537 82.6505 23.1398 82.5779 23.2124C82.5054 23.2849 82.4192 23.3425 82.3244 23.3817C82.2296 23.421 82.128 23.4411 82.0254 23.441ZM82.0254 28.128H47.6531C47.5505 28.128 47.4489 28.1078 47.3541 28.0686C47.2593 28.0293 47.1732 27.9718 47.1007 27.8992C47.0281 27.8267 46.9706 27.7405 46.9314 27.6457C46.8921 27.5509 46.872 27.4493 46.8721 27.3467C46.872 27.2441 46.8922 27.1425 46.9314 27.0477C46.9707 26.953 47.0282 26.8668 47.1007 26.7943C47.1733 26.7218 47.2594 26.6642 47.3542 26.625C47.449 26.5858 47.5505 26.5656 47.6531 26.5656H82.0252C82.457 26.5656 82.8064 26.9151 82.8064 27.3467C82.8065 27.4493 82.7864 27.5509 82.7472 27.6458C82.708 27.7406 82.6505 27.8267 82.5779 27.8993C82.5054 27.9719 82.4192 28.0294 82.3244 28.0686C82.2296 28.1079 82.128 28.128 82.0254 28.128ZM64.84 32.8147H47.6531C47.2215 32.8147 46.8721 32.4653 46.8721 32.0334C46.8721 31.6016 47.2215 31.2522 47.6531 31.2522H64.84C65.2717 31.2522 65.6211 31.6016 65.6211 32.0334C65.6211 32.4653 65.2717 32.8147 64.84 32.8147Z" fill="black"/>
<path d="M24.2189 32.8146C24.0644 32.8145 23.9134 32.7687 23.785 32.6828C23.6566 32.5969 23.5565 32.4749 23.4974 32.3322C23.4383 32.1895 23.4229 32.0324 23.453 31.8809C23.4831 31.7294 23.5575 31.5903 23.6667 31.481L29.9159 25.2318C29.988 25.1572 30.0742 25.0977 30.1695 25.0567C30.2649 25.0158 30.3674 24.9942 30.4711 24.9933C30.5748 24.9924 30.6777 25.0122 30.7737 25.0515C30.8697 25.0907 30.957 25.1488 31.0303 25.2221C31.1037 25.2955 31.1617 25.3827 31.201 25.4787C31.2402 25.5747 31.26 25.6776 31.2591 25.7813C31.2582 25.8851 31.2367 25.9876 31.1957 26.0829C31.1548 26.1782 31.0953 26.2644 31.0206 26.3365L24.7714 32.5857C24.6989 32.6584 24.6128 32.716 24.518 32.7553C24.4232 32.7946 24.3215 32.8147 24.2189 32.8146Z" fill="black"/>
<path d="M35.1552 31.2523C35.0526 31.2524 34.951 31.2323 34.8562 31.1931C34.7614 31.1538 34.6753 31.0962 34.6028 31.0236L29.9159 26.3367C29.8413 26.2647 29.7818 26.1785 29.7408 26.0831C29.6999 25.9878 29.6783 25.8853 29.6774 25.7816C29.6765 25.6778 29.6963 25.575 29.7356 25.4789C29.7749 25.3829 29.8329 25.2957 29.9062 25.2224C29.9796 25.149 30.0668 25.091 30.1628 25.0517C30.2588 25.0124 30.3617 24.9927 30.4654 24.9936C30.5692 24.9945 30.6717 25.016 30.767 25.057C30.8623 25.0979 30.9485 25.1574 31.0206 25.232L35.7075 29.919C35.8167 30.0282 35.891 30.1674 35.9211 30.3189C35.9512 30.4704 35.9357 30.6274 35.8766 30.7701C35.8175 30.9128 35.7174 31.0348 35.589 31.1206C35.4606 31.2064 35.3096 31.2523 35.1552 31.2523ZM21.0944 30.4713C20.9399 30.4714 20.7888 30.4257 20.6603 30.3399C20.5318 30.2541 20.4316 30.132 20.3724 29.9893C20.3133 29.8465 20.2978 29.6894 20.328 29.5378C20.3582 29.3863 20.4327 29.2471 20.5421 29.1379L22.8854 26.7943C22.9575 26.7197 23.0437 26.6602 23.139 26.6193C23.2344 26.5783 23.3369 26.5568 23.4406 26.5559C23.5443 26.555 23.6472 26.5747 23.7432 26.614C23.8392 26.6533 23.9265 26.7113 23.9998 26.7847C24.0732 26.858 24.1312 26.9452 24.1705 27.0413C24.2097 27.1373 24.2295 27.2401 24.2286 27.3439C24.2277 27.4476 24.2062 27.5501 24.1652 27.6454C24.1243 27.7408 24.0648 27.827 23.9901 27.899L21.6466 30.2424C21.5742 30.3151 21.4881 30.3727 21.3934 30.412C21.2986 30.4513 21.197 30.4714 21.0944 30.4713Z" fill="black"/>
<path d="M25.0002 29.69C24.8976 29.6901 24.796 29.67 24.7012 29.6307C24.6064 29.5915 24.5203 29.5339 24.4479 29.4613L22.8855 27.899C22.8109 27.827 22.7514 27.7407 22.7105 27.6454C22.6695 27.5501 22.648 27.4476 22.6471 27.3439C22.6462 27.2401 22.6659 27.1373 22.7052 27.0412C22.7445 26.9452 22.8025 26.858 22.8759 26.7847C22.9492 26.7113 23.0364 26.6533 23.1325 26.614C23.2285 26.5747 23.3313 26.555 23.4351 26.5559C23.5388 26.5568 23.6413 26.5783 23.7366 26.6193C23.832 26.6602 23.9182 26.7197 23.9902 26.7943L25.5525 28.3566C25.6617 28.4659 25.736 28.6051 25.7661 28.7566C25.7962 28.9081 25.7807 29.0651 25.7216 29.2078C25.6625 29.3505 25.5624 29.4724 25.434 29.5583C25.3056 29.6441 25.1546 29.69 25.0002 29.69ZM25.7813 25.0033C24.4891 25.0033 23.4379 23.9521 23.4379 22.6598C23.4379 21.3676 24.4891 20.3164 25.7813 20.3164C27.0734 20.3164 28.1248 21.3676 28.1248 22.6598C28.1248 23.952 27.0734 25.0033 25.7813 25.0033ZM25.7813 21.8787C25.5742 21.879 25.3757 21.9613 25.2292 22.1078C25.0828 22.2542 25.0005 22.4527 25.0002 22.6598C25.0002 23.0908 25.351 23.441 25.7813 23.441C26.2115 23.441 26.5625 23.0908 26.5625 22.6598C26.5622 22.4527 26.4798 22.2542 26.3333 22.1078C26.1869 21.9613 25.9883 21.879 25.7813 21.8787ZM3.91055 46.8754C1.75625 46.8754 0.00488291 45.123 0.00488291 42.9695C0.00488291 42.5379 0.354297 42.1883 0.785938 42.1883C1.21777 42.1883 1.56719 42.5377 1.56719 42.9695C1.56719 44.2619 2.61836 45.3131 3.91055 45.3131C4.34238 45.3131 4.6918 45.6625 4.6918 46.0943C4.6918 46.5262 4.34238 46.8754 3.91055 46.8754ZM3.91055 96.8689C1.75625 96.8689 0.00488291 95.1174 0.00488291 92.9631C0.00483157 92.8605 0.0249991 92.7589 0.0642326 92.6641C0.103466 92.5694 0.160996 92.4832 0.233534 92.4107C0.306072 92.3382 0.392195 92.2806 0.48698 92.2414C0.581765 92.2022 0.683354 92.182 0.785938 92.182C1.21777 92.182 1.56719 92.5315 1.56719 92.9631C1.56719 94.2555 2.61836 95.3066 3.91055 95.3066C4.34238 95.3066 4.6918 95.6561 4.6918 96.0877C4.6918 96.5195 4.34238 96.8689 3.91055 96.8689ZM96.0893 96.8689C95.9867 96.869 95.8851 96.8488 95.7903 96.8096C95.6955 96.7703 95.6093 96.7128 95.5368 96.6402C95.4642 96.5677 95.4067 96.4815 95.3675 96.3867C95.3283 96.2919 95.3081 96.1903 95.3082 96.0877C95.3082 95.9851 95.3283 95.8835 95.3676 95.7887C95.4068 95.694 95.4643 95.6078 95.5368 95.5353C95.6094 95.4628 95.6955 95.4052 95.7903 95.366C95.8851 95.3268 95.9867 95.3066 96.0893 95.3066C97.3816 95.3066 98.4328 94.2555 98.4328 92.9631C98.4328 92.5315 98.782 92.182 99.2139 92.182C99.6457 92.182 99.9951 92.5315 99.9951 92.9631C99.9951 95.1174 98.2436 96.8689 96.0893 96.8689ZM99.2139 50C99.1113 50.0001 99.0097 49.9799 98.9149 49.9406C98.8201 49.9014 98.7339 49.8438 98.6614 49.7713C98.5889 49.6987 98.5313 49.6126 98.4921 49.5178C98.4529 49.423 98.4327 49.3214 98.4328 49.2188C98.4328 47.9266 97.3816 46.8754 96.0893 46.8754C95.6576 46.8754 95.3082 46.526 95.3082 46.0941C95.3082 45.6623 95.6576 45.3129 96.0893 45.3129C98.2436 45.3129 99.9951 47.0652 99.9951 49.2186C99.9952 49.3212 99.975 49.4228 99.9358 49.5176C99.8966 49.6125 99.839 49.6986 99.7665 49.7712C99.6939 49.8438 99.6078 49.9014 99.5129 49.9406C99.4181 49.9799 99.3165 50.0001 99.2139 50ZM99.2139 43.7508C99.1113 43.7508 99.0097 43.7307 98.9149 43.6914C98.8201 43.6522 98.7339 43.5946 98.6614 43.5221C98.5889 43.4495 98.5313 43.3634 98.4921 43.2686C98.4529 43.1737 98.4327 43.0721 98.4328 42.9695C98.4328 41.6773 97.3816 40.626 96.0893 40.626C95.9867 40.626 95.8851 40.6059 95.7903 40.5666C95.6955 40.5274 95.6094 40.4699 95.5368 40.3973C95.4643 40.3248 95.4068 40.2387 95.3676 40.1439C95.3283 40.0491 95.3082 39.9475 95.3082 39.8449C95.3082 39.4131 95.6576 39.0637 96.0893 39.0637C98.2436 39.0637 99.9951 40.816 99.9951 42.9695C99.9951 43.4014 99.6457 43.7508 99.2139 43.7508Z" fill="black"/>
<path d="M0.785938 43.7508C0.683337 43.7509 0.581733 43.7307 0.486935 43.6915C0.392137 43.6522 0.306005 43.5947 0.233465 43.5221C0.160925 43.4496 0.103399 43.3634 0.0641766 43.2686C0.0249546 43.1738 0.00480601 43.0722 0.00488303 42.9696C0.00488303 40.8161 1.75625 39.0637 3.91055 39.0637C4.34238 39.0637 4.6918 39.4131 4.6918 39.845C4.69185 39.9476 4.67167 40.0492 4.63243 40.144C4.59318 40.2388 4.53563 40.3249 4.46308 40.3974C4.39052 40.47 4.30437 40.5275 4.20956 40.5667C4.11476 40.606 4.01315 40.6261 3.91055 40.626C2.61836 40.626 1.56719 41.6772 1.56719 42.9696C1.56719 43.4014 1.21777 43.7508 0.785938 43.7508Z" fill="black"/>
<path d="M96.0892 46.8754H3.91045C3.47881 46.8754 3.12939 46.526 3.12939 46.0941C3.12939 45.6623 3.47881 45.3129 3.91045 45.3129H96.089C96.5208 45.3129 96.8702 45.6623 96.8702 46.0941C96.8702 46.526 96.521 46.8754 96.0892 46.8754Z" fill="black"/>
<path d="M99.2137 45.313C99.1111 45.3131 99.0095 45.2929 98.9147 45.2537C98.8199 45.2144 98.7337 45.1569 98.6612 45.0843C98.5887 45.0118 98.5311 44.9256 98.4919 44.8308C98.4527 44.736 98.4325 44.6344 98.4326 44.5318V42.9695C98.4326 42.5378 98.7818 42.1882 99.2137 42.1882C99.6455 42.1882 99.9949 42.5376 99.9949 42.9695V44.5318C99.9949 44.9636 99.6455 45.313 99.2137 45.313Z" fill="black"/>
<path d="M94.5242 43.7507H5.47168C5.03984 43.7507 4.69043 43.4013 4.69043 42.9695C4.69043 42.5376 5.03984 42.1882 5.47168 42.1882H94.5242C94.9559 42.1882 95.3053 42.5376 95.3053 42.9695C95.3053 43.4013 94.9559 43.7507 94.5242 43.7507Z" fill="black"/>
<path d="M91.3994 7.81799H8.59766C8.16582 7.81799 7.81641 7.46858 7.81641 7.03674C7.81641 6.60491 8.16582 6.25549 8.59766 6.25549H91.3994C91.8311 6.25549 92.1805 6.60491 92.1805 7.03674C92.1805 7.46858 91.8311 7.81799 91.3994 7.81799Z" fill="black"/>
<path d="M89.8373 4.69341H10.1602C9.72832 4.69341 9.37891 4.34399 9.37891 3.91216C9.37885 3.80956 9.39903 3.70795 9.43827 3.61316C9.47752 3.51836 9.53507 3.43223 9.60763 3.35969C9.68019 3.28715 9.76633 3.22962 9.86114 3.1904C9.95595 3.15118 10.0576 3.13103 10.1602 3.1311H89.8373C89.9399 3.13105 90.0415 3.15122 90.1363 3.19045C90.231 3.22969 90.3172 3.28722 90.3897 3.35975C90.4622 3.43229 90.5198 3.51842 90.559 3.6132C90.5982 3.70799 90.6184 3.80957 90.6184 3.91216C90.6184 4.34399 90.2689 4.69341 89.8373 4.69341Z" fill="black"/>
<path d="M94.5242 51.5623H92.9602C92.8576 51.5624 92.756 51.5422 92.6611 51.5029C92.5664 51.4637 92.4802 51.4061 92.4077 51.3336C92.3351 51.261 92.2776 51.1749 92.2384 51.0801C92.1992 50.9853 92.179 50.8837 92.1791 50.7811C92.179 50.6785 92.1992 50.5769 92.2384 50.4821C92.2777 50.3873 92.3352 50.3012 92.4077 50.2286C92.4803 50.1561 92.5664 50.0986 92.6612 50.0593C92.756 50.0201 92.8576 49.9999 92.9602 50H94.5242C94.6268 49.9999 94.7284 50.0201 94.8232 50.0593C94.918 50.0986 95.0041 50.1561 95.0766 50.2286C95.1492 50.3012 95.2067 50.3873 95.2459 50.4821C95.2852 50.5769 95.3053 50.6785 95.3053 50.7811C95.3053 51.2129 94.9559 51.5623 94.5242 51.5623ZM89.8357 51.5623H86.7111C86.2793 51.5623 85.9299 51.2129 85.9299 50.7811C85.9298 50.6785 85.95 50.5769 85.9893 50.4821C86.0285 50.3873 86.086 50.3011 86.1586 50.2286C86.2312 50.156 86.3173 50.0985 86.4121 50.0593C86.5069 50.0201 86.6085 49.9999 86.7111 50H89.8357C89.9383 49.9999 90.0399 50.0201 90.1347 50.0593C90.2295 50.0986 90.3156 50.1561 90.3881 50.2286C90.4607 50.3012 90.5182 50.3873 90.5574 50.4821C90.5967 50.5769 90.6168 50.6785 90.6168 50.7811C90.6168 51.2129 90.2674 51.5623 89.8357 51.5623ZM83.5865 51.5623H80.4619C80.3593 51.5624 80.2577 51.5422 80.1629 51.5029C80.0681 51.4637 79.982 51.4061 79.9094 51.3336C79.8369 51.261 79.7794 51.1749 79.7402 51.0801C79.7009 50.9853 79.6808 50.8837 79.6809 50.7811C79.6808 50.6785 79.701 50.5769 79.7402 50.4821C79.7794 50.3873 79.837 50.3012 79.9095 50.2286C79.982 50.1561 80.0682 50.0986 80.163 50.0593C80.2577 50.0201 80.3593 49.9999 80.4619 50H83.5865C83.6891 49.9999 83.7907 50.0201 83.8855 50.0593C83.9803 50.0986 84.0664 50.1561 84.1389 50.2286C84.2115 50.3012 84.269 50.3873 84.3082 50.4821C84.3475 50.5769 84.3676 50.6785 84.3676 50.7811C84.3676 51.2129 84.0182 51.5623 83.5865 51.5623ZM77.3373 51.5623H74.2127C74.1101 51.5624 74.0085 51.5422 73.9137 51.5029C73.8189 51.4637 73.7328 51.4061 73.6602 51.3336C73.5877 51.261 73.5302 51.1749 73.4909 51.0801C73.4517 50.9853 73.4316 50.8837 73.4316 50.7811C73.4316 50.6785 73.4518 50.5769 73.491 50.4821C73.5302 50.3873 73.5878 50.3012 73.6603 50.2286C73.7328 50.1561 73.819 50.0986 73.9137 50.0593C74.0085 50.0201 74.1101 49.9999 74.2127 50H77.3373C77.7691 50 78.1186 50.3494 78.1186 50.7811C78.1186 51.2129 77.7691 51.5623 77.3373 51.5623ZM71.0883 51.5623H67.9637C67.5318 51.5623 67.1824 51.2129 67.1824 50.7811C67.1824 50.6785 67.2025 50.5769 67.2418 50.4821C67.281 50.3873 67.3386 50.3011 67.4111 50.2286C67.4837 50.156 67.5698 50.0985 67.6646 50.0593C67.7595 50.0201 67.8611 49.9999 67.9637 50H71.0883C71.1909 49.9999 71.2924 50.0201 71.3872 50.0593C71.482 50.0986 71.5681 50.1561 71.6407 50.2286C71.7132 50.3012 71.7708 50.3873 71.81 50.4821C71.8492 50.5769 71.8694 50.6785 71.8693 50.7811C71.8693 51.2129 71.5199 51.5623 71.0883 51.5623ZM64.8391 51.5623H61.7145C61.2826 51.5623 60.9332 51.2129 60.9332 50.7811C60.9331 50.6785 60.9533 50.5769 60.9926 50.4821C61.0318 50.3873 61.0894 50.3011 61.1619 50.2286C61.2345 50.156 61.3206 50.0985 61.4154 50.0593C61.5102 50.0201 61.6119 49.9999 61.7145 50H64.8391C64.9416 49.9999 65.0432 50.0201 65.138 50.0593C65.2328 50.0986 65.3189 50.1561 65.3915 50.2286C65.464 50.3012 65.5215 50.3873 65.5608 50.4821C65.6 50.5769 65.6202 50.6785 65.6201 50.7811C65.6201 51.2129 65.2707 51.5623 64.8391 51.5623ZM58.5898 51.5623H55.465C55.0332 51.5623 54.6838 51.2129 54.6838 50.7811C54.6837 50.6785 54.7039 50.5769 54.7432 50.4821C54.7824 50.3873 54.84 50.3011 54.9125 50.2286C54.9851 50.156 55.0712 50.0985 55.166 50.0593C55.2608 50.0201 55.3624 49.9999 55.465 50H58.5896C59.0215 50 59.3709 50.3494 59.3709 50.7811C59.371 50.8837 59.3508 50.9853 59.3116 51.0801C59.2724 51.1749 59.2149 51.261 59.1423 51.3336C59.0698 51.4061 58.9836 51.4637 58.8888 51.5029C58.794 51.5422 58.6924 51.5624 58.5898 51.5623ZM52.3404 51.5623H49.2158C49.1132 51.5624 49.0116 51.5422 48.9168 51.5029C48.822 51.4637 48.7359 51.4061 48.6633 51.3336C48.5908 51.261 48.5333 51.1749 48.4941 51.0801C48.4548 50.9853 48.4347 50.8837 48.4348 50.7811C48.4347 50.6785 48.4549 50.5769 48.4941 50.4821C48.5333 50.3873 48.5909 50.3012 48.6634 50.2286C48.736 50.1561 48.8221 50.0986 48.9169 50.0593C49.0117 50.0201 49.1132 49.9999 49.2158 50H52.3404C52.7723 50 53.1217 50.3494 53.1217 50.7811C53.1217 51.2129 52.7723 51.5623 52.3404 51.5623ZM46.0914 51.5623H42.9668C42.5352 51.5623 42.1855 51.2129 42.1855 50.7811C42.1855 50.6785 42.2057 50.5769 42.2449 50.4821C42.2842 50.3873 42.3417 50.3011 42.4143 50.2286C42.4868 50.156 42.573 50.0985 42.6678 50.0593C42.7626 50.0201 42.8642 49.9999 42.9668 50H46.0914C46.2986 50 46.4973 50.0823 46.6438 50.2288C46.7903 50.3753 46.8726 50.574 46.8726 50.7812C46.8726 50.9883 46.7903 51.187 46.6438 51.3335C46.4973 51.48 46.2986 51.5623 46.0914 51.5623ZM39.8422 51.5623H36.7176C36.2857 51.5623 35.9363 51.2129 35.9363 50.7811C35.9363 50.6785 35.9565 50.5769 35.9957 50.4821C36.0349 50.3873 36.0925 50.3011 36.1651 50.2286C36.2376 50.156 36.3238 50.0985 36.4186 50.0593C36.5134 50.0201 36.615 49.9999 36.7176 50H39.8422C39.9448 49.9999 40.0464 50.0201 40.1411 50.0593C40.2359 50.0986 40.3221 50.1561 40.3946 50.2286C40.4671 50.3012 40.5247 50.3873 40.5639 50.4821C40.6031 50.5769 40.6233 50.6785 40.6232 50.7811C40.6232 51.2129 40.2738 51.5623 39.8422 51.5623ZM33.593 51.5623H30.4684C30.0365 51.5623 29.6871 51.2129 29.6871 50.7811C29.6871 50.6785 29.7072 50.5769 29.7465 50.4821C29.7857 50.3873 29.8433 50.3011 29.9158 50.2286C29.9884 50.156 30.0745 50.0985 30.1693 50.0593C30.2642 50.0201 30.3658 49.9999 30.4684 50H33.593C34.0246 50 34.3742 50.3494 34.3742 50.7811C34.3742 51.2129 34.0248 51.5623 33.593 51.5623ZM27.3437 51.5623H24.2191C24.1165 51.5624 24.0149 51.5422 23.9201 51.5029C23.8253 51.4637 23.7392 51.4061 23.6667 51.3336C23.5941 51.261 23.5366 51.1749 23.4974 51.0801C23.4582 50.9853 23.438 50.8837 23.4381 50.7811C23.438 50.6785 23.4582 50.5769 23.4974 50.4821C23.5367 50.3873 23.5942 50.3012 23.6667 50.2286C23.7393 50.1561 23.8254 50.0986 23.9202 50.0593C24.015 50.0201 24.1166 49.9999 24.2191 50H27.3437C27.7756 50 28.125 50.3494 28.125 50.7811C28.125 51.2129 27.7756 51.5623 27.3437 51.5623ZM21.0945 51.5623H17.9699C17.5383 51.5623 17.1887 51.2129 17.1887 50.7811C17.1886 50.6785 17.2088 50.5769 17.248 50.4821C17.2873 50.3873 17.3448 50.3011 17.4174 50.2286C17.49 50.156 17.5761 50.0985 17.6709 50.0593C17.7657 50.0201 17.8673 49.9999 17.9699 50H21.0945C21.5262 50 21.8758 50.3494 21.8758 50.7811C21.8758 51.2129 21.5264 51.5623 21.0945 51.5623ZM14.8455 51.5623H11.7209C11.2891 51.5623 10.9396 51.2129 10.9396 50.7811C10.9396 50.6785 10.9598 50.5769 10.999 50.4821C11.0383 50.3873 11.0958 50.3011 11.1684 50.2286C11.2409 50.156 11.3271 50.0985 11.4219 50.0593C11.5167 50.0201 11.6183 49.9999 11.7209 50H14.8455C14.9481 49.9999 15.0497 50.0201 15.1445 50.0593C15.2393 50.0986 15.3254 50.1561 15.3979 50.2286C15.4704 50.3012 15.528 50.3873 15.5672 50.4821C15.6064 50.5769 15.6266 50.6785 15.6266 50.7811C15.6266 51.2129 15.2771 51.5623 14.8455 51.5623ZM8.59629 51.5623H5.47168C5.03984 51.5623 4.69043 51.2129 4.69043 50.7811C4.69038 50.6785 4.71055 50.5769 4.7498 50.4821C4.78904 50.3873 4.84659 50.3011 4.91915 50.2286C4.99171 50.156 5.07785 50.0985 5.17266 50.0593C5.26747 50.0201 5.36908 49.9999 5.47168 50H8.59629C8.80346 50 9.00215 50.0823 9.14865 50.2288C9.29514 50.3753 9.37744 50.574 9.37744 50.7812C9.37744 50.9883 9.29514 51.187 9.14865 51.3335C9.00215 51.48 8.80346 51.5623 8.59629 51.5623Z" fill="black"/>
<path d="M94.5242 92.1821H92.9602C92.8576 92.1821 92.756 92.1619 92.6612 92.1227C92.5664 92.0835 92.4803 92.0259 92.4077 91.9534C92.3352 91.8809 92.2777 91.7947 92.2384 91.7C92.1992 91.6052 92.179 91.5036 92.1791 91.401C92.1791 90.9692 92.5285 90.6198 92.9602 90.6198H94.5242C94.6268 90.6197 94.7284 90.6399 94.8232 90.6791C94.918 90.7184 95.0042 90.7759 95.0767 90.8485C95.1492 90.921 95.2068 91.0072 95.246 91.102C95.2852 91.1968 95.3054 91.2984 95.3053 91.401C95.3053 91.5036 95.2852 91.6052 95.2459 91.7C95.2067 91.7947 95.1492 91.8809 95.0766 91.9534C95.0041 92.0259 94.918 92.0835 94.8232 92.1227C94.7284 92.1619 94.6268 92.1821 94.5242 92.1821ZM89.8357 92.1821H86.7111C86.2793 92.1821 85.9299 91.8326 85.9299 91.401C85.9299 90.9692 86.2793 90.6198 86.7111 90.6198H89.8357C89.9383 90.6197 90.0399 90.6399 90.1347 90.6791C90.2295 90.7184 90.3157 90.7759 90.3882 90.8485C90.4608 90.921 90.5183 91.0072 90.5575 91.102C90.5967 91.1968 90.6169 91.2984 90.6168 91.401C90.6168 91.5036 90.5967 91.6052 90.5574 91.7C90.5182 91.7947 90.4607 91.8809 90.3881 91.9534C90.3156 92.0259 90.2295 92.0835 90.1347 92.1227C90.0399 92.1619 89.9383 92.1821 89.8357 92.1821ZM83.5865 92.1821H80.4619C80.3593 92.1821 80.2577 92.1619 80.163 92.1227C80.0682 92.0835 79.982 92.0259 79.9095 91.9534C79.837 91.8809 79.7794 91.7947 79.7402 91.7C79.701 91.6052 79.6808 91.5036 79.6809 91.401C79.6809 90.9692 80.0301 90.6198 80.4619 90.6198H83.5865C83.6891 90.6197 83.7907 90.6399 83.8855 90.6791C83.9803 90.7184 84.0665 90.7759 84.139 90.8485C84.2115 90.921 84.2691 91.0072 84.3083 91.102C84.3475 91.1968 84.3677 91.2984 84.3676 91.401C84.3676 91.5036 84.3475 91.6052 84.3082 91.7C84.269 91.7947 84.2115 91.8809 84.1389 91.9534C84.0664 92.0259 83.9803 92.0835 83.8855 92.1227C83.7907 92.1619 83.6891 92.1821 83.5865 92.1821ZM77.3373 92.1821H74.2127C74.1101 92.1821 74.0085 92.1619 73.9137 92.1227C73.819 92.0835 73.7328 92.0259 73.6603 91.9534C73.5878 91.8809 73.5302 91.7947 73.491 91.7C73.4518 91.6052 73.4316 91.5036 73.4316 91.401C73.4316 90.9692 73.7811 90.6198 74.2127 90.6198H77.3373C77.7691 90.6198 78.1186 90.9692 78.1186 91.401C78.1186 91.5036 78.0984 91.6052 78.0592 91.7C78.0199 91.7948 77.9624 91.8809 77.8898 91.9535C77.8173 92.026 77.7311 92.0835 77.6363 92.1228C77.5415 92.162 77.4399 92.1821 77.3373 92.1821ZM71.0883 92.1821H67.9637C67.5318 92.1821 67.1824 91.8326 67.1824 91.401C67.1824 90.9692 67.5318 90.6198 67.9637 90.6198H71.0883C71.1909 90.6197 71.2925 90.6399 71.3873 90.6791C71.4821 90.7184 71.5682 90.7759 71.6407 90.8485C71.7133 90.921 71.7708 91.0072 71.81 91.102C71.8493 91.1968 71.8694 91.2984 71.8693 91.401C71.8694 91.5036 71.8492 91.6052 71.81 91.7C71.7708 91.7947 71.7132 91.8809 71.6407 91.9534C71.5681 92.0259 71.482 92.0835 71.3872 92.1227C71.2924 92.1619 71.1909 92.1821 71.0883 92.1821ZM64.8391 92.1821H61.7145C61.2826 92.1821 60.9332 91.8326 60.9332 91.401C60.9332 90.9692 61.2826 90.6198 61.7145 90.6198H64.8391C64.9417 90.6197 65.0433 90.6399 65.1381 90.6791C65.2329 90.7184 65.319 90.7759 65.3915 90.8485C65.4641 90.921 65.5216 91.0072 65.5608 91.102C65.6 91.1968 65.6202 91.2984 65.6201 91.401C65.6202 91.5036 65.6 91.6052 65.5608 91.7C65.5215 91.7947 65.464 91.8809 65.3915 91.9534C65.3189 92.0259 65.2328 92.0835 65.138 92.1227C65.0432 92.1619 64.9416 92.1821 64.8391 92.1821ZM58.5898 92.1821H55.465C55.0332 92.1821 54.6838 91.8326 54.6838 91.401C54.6838 90.9692 55.0332 90.6198 55.465 90.6198H58.5896C59.0215 90.6198 59.3709 90.9692 59.3709 91.401C59.3709 91.5036 59.3508 91.6052 59.3115 91.7C59.2723 91.7947 59.2148 91.8809 59.1422 91.9534C59.0697 92.0259 58.9836 92.0835 58.8888 92.1227C58.794 92.1619 58.6924 92.1821 58.5898 92.1821ZM52.3404 92.1821H49.2158C49.1132 92.1821 49.0116 92.1619 48.9169 92.1227C48.8221 92.0835 48.736 92.0259 48.6634 91.9534C48.5909 91.8809 48.5333 91.7947 48.4941 91.7C48.4549 91.6052 48.4347 91.5036 48.4348 91.401C48.4348 90.9692 48.7842 90.6198 49.2158 90.6198H52.3404C52.7723 90.6198 53.1217 90.9692 53.1217 91.401C53.1217 91.5036 53.1016 91.6052 53.0623 91.7C53.0231 91.7948 52.9655 91.8809 52.893 91.9535C52.8204 92.026 52.7343 92.0835 52.6394 92.1228C52.5446 92.162 52.443 92.1821 52.3404 92.1821ZM46.0914 92.1821H42.9668C42.5352 92.1821 42.1855 91.8326 42.1855 91.401C42.1855 90.9692 42.535 90.6198 42.9668 90.6198H46.0914C46.523 90.6198 46.8727 90.9692 46.8727 91.401C46.8727 91.5036 46.8524 91.6052 46.8132 91.6999C46.7739 91.7947 46.7164 91.8808 46.6438 91.9534C46.5713 92.0259 46.4851 92.0834 46.3904 92.1227C46.2956 92.1619 46.194 92.1821 46.0914 92.1821ZM39.8422 92.1821H36.7176C36.2857 92.1821 35.9363 91.8326 35.9363 91.401C35.9363 90.9692 36.2857 90.6198 36.7176 90.6198H39.8422C39.9448 90.6197 40.0464 90.6399 40.1412 90.6791C40.236 90.7184 40.3221 90.7759 40.3947 90.8485C40.4672 90.921 40.5247 91.0072 40.5639 91.102C40.6032 91.1968 40.6233 91.2984 40.6232 91.401C40.6233 91.5036 40.6031 91.6052 40.5639 91.7C40.5247 91.7947 40.4671 91.8809 40.3946 91.9534C40.3221 92.0259 40.2359 92.0835 40.1411 92.1227C40.0464 92.1619 39.9448 92.1821 39.8422 92.1821ZM33.593 92.1821H30.4684C30.0365 92.1821 29.6871 91.8326 29.6871 91.401C29.6871 90.9692 30.0365 90.6198 30.4684 90.6198H33.593C34.0246 90.6198 34.3742 90.9692 34.3742 91.401C34.3743 91.5036 34.3541 91.6052 34.3148 91.7C34.2756 91.7948 34.2181 91.8809 34.1455 91.9535C34.0729 92.026 33.9868 92.0835 33.892 92.1228C33.7972 92.162 33.6956 92.1821 33.593 92.1821ZM27.3437 92.1821H24.2191C24.1166 92.1821 24.015 92.1619 23.9202 92.1227C23.8254 92.0835 23.7393 92.0259 23.6667 91.9534C23.5942 91.8809 23.5367 91.7947 23.4974 91.7C23.4582 91.6052 23.438 91.5036 23.4381 91.401C23.4381 90.9692 23.7875 90.6198 24.2191 90.6198H27.3437C27.7756 90.6198 28.125 90.9692 28.125 91.401C28.125 91.5036 28.1049 91.6052 28.0656 91.7C28.0264 91.7948 27.9688 91.8809 27.8963 91.9535C27.8237 92.026 27.7376 92.0835 27.6428 92.1228C27.548 92.162 27.4463 92.1821 27.3437 92.1821ZM21.0945 92.1821H17.9699C17.5383 92.1821 17.1887 91.8326 17.1887 91.401C17.1887 90.9692 17.5381 90.6198 17.9699 90.6198H21.0945C21.5262 90.6198 21.8758 90.9692 21.8758 91.401C21.8758 91.5036 21.8557 91.6052 21.8164 91.7C21.7772 91.7948 21.7196 91.8809 21.6471 91.9535C21.5745 92.026 21.4884 92.0835 21.3935 92.1228C21.2987 92.162 21.1971 92.1821 21.0945 92.1821ZM14.8455 92.1821H11.7209C11.2891 92.1821 10.9396 91.8326 10.9396 91.401C10.9396 90.9692 11.2891 90.6198 11.7209 90.6198H14.8455C14.9481 90.6197 15.0497 90.6399 15.1445 90.6791C15.2393 90.7184 15.3254 90.7759 15.398 90.8485C15.4705 90.921 15.528 91.0072 15.5673 91.102C15.6065 91.1968 15.6266 91.2984 15.6266 91.401C15.6266 91.5036 15.6064 91.6052 15.5672 91.7C15.528 91.7947 15.4704 91.8809 15.3979 91.9534C15.3254 92.0259 15.2393 92.0835 15.1445 92.1227C15.0497 92.1619 14.9481 92.1821 14.8455 92.1821ZM8.59629 92.1821H5.47168C5.03984 92.1821 4.69043 91.8326 4.69043 91.401C4.69043 90.9692 5.03984 90.6198 5.47168 90.6198H8.59629C9.02793 90.6198 9.37754 90.9692 9.37754 91.401C9.37754 91.5036 9.35733 91.6052 9.31807 91.6999C9.2788 91.7947 9.22125 91.8808 9.1487 91.9534C9.07616 92.0259 8.99003 92.0834 8.89525 92.1227C8.80046 92.1619 8.69888 92.1821 8.59629 92.1821Z" fill="black"/>
<path d="M49.9985 76.5589C42.8034 76.5589 35.1567 74.6425 35.1567 71.091C35.1567 67.539 42.8034 65.6228 49.9985 65.6228C57.1937 65.6228 64.8403 67.5392 64.8403 71.091C64.8403 74.6427 57.1937 76.5589 49.9985 76.5589ZM49.9985 67.1851C41.7704 67.1851 36.719 69.4597 36.719 71.091C36.719 72.7218 41.7704 74.9966 49.9985 74.9966C58.2265 74.9966 63.278 72.7218 63.278 71.091C63.278 69.4599 58.2265 67.1851 49.9985 67.1851Z" fill="black"/>
<path d="M56.2475 71.8721H43.749C43.3172 71.8721 42.9678 71.5227 42.9678 71.0911C42.9678 70.6592 43.3172 70.3098 43.749 70.3098H56.2475C56.3501 70.3098 56.4517 70.3299 56.5465 70.3692C56.6413 70.4084 56.7274 70.466 56.7999 70.5385C56.8725 70.6111 56.93 70.6972 56.9692 70.792C57.0084 70.8869 57.0286 70.9885 57.0285 71.0911C57.0286 71.1936 57.0084 71.2952 56.9692 71.39C56.9299 71.4848 56.8724 71.5709 56.7999 71.6435C56.7273 71.716 56.6412 71.7735 56.5464 71.8128C56.4516 71.852 56.35 71.8722 56.2475 71.8721Z" fill="black"/>
</svg>
