<svg width="100" height="100" viewBox="0 0 100 100" fill="none" xmlns="http://www.w3.org/2000/svg">
<path d="M3.96689 21.8836C3.53584 21.8836 3.17822 21.5344 3.17822 21.1026C3.17822 20.6708 3.51982 20.3215 3.95146 20.3215H3.9667C4.39834 20.3215 4.74775 20.6708 4.74775 21.1026C4.74775 21.5344 4.39854 21.8836 3.96689 21.8836ZM7.09092 21.8836C6.65986 21.8836 6.30225 21.5344 6.30225 21.1026C6.30225 20.6708 6.64385 20.3215 7.07549 20.3215H7.09072C7.52236 20.3215 7.87178 20.6708 7.87178 21.1026C7.87178 21.5344 7.52256 21.8836 7.09092 21.8836ZM10.2149 21.8836C9.78389 21.8836 9.42627 21.5344 9.42627 21.1026C9.42627 20.6708 9.76787 20.3215 10.1995 20.3215H10.2147C10.6464 20.3215 10.9958 20.6708 10.9958 21.1026C10.9958 21.5344 10.6466 21.8836 10.2149 21.8836Z" fill="black"/>
<path d="M85.1457 23.4457H0.79668C0.694096 23.4458 0.592507 23.4256 0.497722 23.3864C0.402937 23.3471 0.316814 23.2896 0.244276 23.2171C0.171738 23.1445 0.114208 23.0584 0.0749748 22.9636C0.0357413 22.8688 0.0155738 22.7673 0.0156251 22.6647V21.1026C0.0156251 19.8106 1.0666 18.7594 2.35859 18.7594H83.5838C84.8758 18.7594 85.9268 19.8104 85.9268 21.1026V22.6647C85.9268 22.7673 85.9066 22.8688 85.8674 22.9636C85.8281 23.0584 85.7706 23.1445 85.698 23.217C85.6255 23.2896 85.5394 23.3471 85.4446 23.3863C85.3499 23.4256 85.2483 23.4458 85.1457 23.4457ZM1.57754 21.8836H84.3645V21.1026C84.3645 20.6793 84.0078 20.3215 83.5836 20.3215H2.35859C2.15149 20.3217 1.95292 20.404 1.80648 20.5504C1.66003 20.6969 1.57769 20.8955 1.57754 21.1026V21.8836Z" fill="black"/>
<path d="M85.1457 42.1899C84.7139 42.1899 84.3645 41.8405 84.3645 41.4088V22.6645C84.3644 22.5619 84.3846 22.4603 84.4238 22.3655C84.4631 22.2707 84.5206 22.1845 84.5932 22.112C84.6657 22.0395 84.7519 21.9819 84.8467 21.9427C84.9415 21.9035 85.0431 21.8833 85.1457 21.8834C85.2483 21.8834 85.3498 21.9036 85.4446 21.9428C85.5394 21.9821 85.6255 22.0396 85.698 22.1121C85.7705 22.1847 85.828 22.2708 85.8672 22.3656C85.9064 22.4603 85.9266 22.5619 85.9266 22.6645V41.4088C85.9266 41.5114 85.9065 41.613 85.8673 41.7078C85.8281 41.8025 85.7706 41.8887 85.698 41.9612C85.6255 42.0337 85.5394 42.0913 85.4446 42.1305C85.3499 42.1698 85.2483 42.1899 85.1457 42.1899ZM0.79668 81.2405C0.694096 81.2405 0.592507 81.2203 0.497722 81.1811C0.402937 81.1419 0.316814 81.0843 0.244276 81.0118C0.171738 80.9393 0.114208 80.8531 0.0749748 80.7584C0.0357413 80.6636 0.0155738 80.562 0.0156251 80.4594V22.6647C0.0155738 22.5621 0.0357413 22.4605 0.0749748 22.3657C0.114208 22.2709 0.171738 22.1848 0.244276 22.1123C0.316814 22.0397 0.402937 21.9822 0.497722 21.943C0.592507 21.9037 0.694096 21.8836 0.79668 21.8836C0.899264 21.8836 1.00085 21.9037 1.09564 21.943C1.19042 21.9822 1.27655 22.0397 1.34908 22.1123C1.42162 22.1848 1.47915 22.2709 1.51838 22.3657C1.55762 22.4605 1.57779 22.5621 1.57773 22.6647V80.4594C1.57776 80.562 1.55758 80.6636 1.51833 80.7583C1.47909 80.8531 1.42156 80.9392 1.34903 81.0117C1.27649 81.0843 1.19038 81.1418 1.09561 81.181C1.00083 81.2203 0.899257 81.2405 0.79668 81.2405Z" fill="black"/>
<path d="M72.6496 81.2404H0.79668C0.365039 81.2404 0.015625 80.891 0.015625 80.4593C0.015625 80.0277 0.365039 79.6783 0.79668 79.6783H72.6496C73.0814 79.6783 73.4305 80.0277 73.4305 80.4593C73.4305 80.891 73.0814 81.2404 72.6496 81.2404ZM85.1457 81.2404C76.9631 81.2404 70.3064 74.5834 70.3064 66.4011C70.3064 58.2187 76.9631 51.5619 85.1457 51.5619C93.3279 51.5619 99.985 58.2187 99.985 66.4011C99.985 74.5834 93.3279 81.2404 85.1457 81.2404ZM85.1457 53.124C77.8238 53.124 71.8686 59.0793 71.8686 66.4011C71.8686 73.723 77.8236 79.6783 85.1457 79.6783C92.4678 79.6783 98.4229 73.7232 98.4229 66.4011C98.4229 59.0791 92.4678 53.124 85.1457 53.124Z" fill="black"/>
<path d="M86.7078 53.2095C86.276 53.2095 85.9266 52.8603 85.9266 52.4285V49.2189C85.9265 49.1163 85.9467 49.0147 85.9859 48.9199C86.0252 48.8251 86.0827 48.739 86.1553 48.6664C86.2278 48.5939 86.314 48.5364 86.4088 48.4972C86.5036 48.4579 86.6052 48.4378 86.7078 48.4379C86.8104 48.4378 86.9119 48.458 87.0067 48.4973C87.1015 48.5365 87.1876 48.5941 87.2601 48.6666C87.3326 48.7391 87.3901 48.8252 87.4293 48.92C87.4686 49.0148 87.4887 49.1164 87.4887 49.2189V52.4285C87.4888 52.5311 87.4686 52.6327 87.4294 52.7274C87.3902 52.8222 87.3327 52.9083 87.2601 52.9809C87.1876 53.0534 87.1015 53.111 87.0067 53.1502C86.912 53.1894 86.8104 53.2096 86.7078 53.2095ZM83.5836 53.2095C83.481 53.2096 83.3794 53.1895 83.2846 53.1502C83.1898 53.111 83.1037 53.0535 83.0312 52.9809C82.9587 52.9084 82.9012 52.8223 82.862 52.7275C82.8228 52.6327 82.8026 52.5311 82.8027 52.4285V49.2189C82.8027 48.7873 83.1518 48.4379 83.5836 48.4379C84.0154 48.4379 84.3645 48.7873 84.3645 49.2189V52.4285C84.3646 52.5311 84.3444 52.6327 84.3052 52.7275C84.266 52.8223 84.2085 52.9084 84.136 52.9809C84.0635 53.0535 83.9773 53.111 83.8826 53.1502C83.7878 53.1895 83.6862 53.2096 83.5836 53.2095Z" fill="black"/>
<path d="M88.2691 50H82.0211C81.9185 50 81.817 49.9798 81.7222 49.9406C81.6274 49.9013 81.5413 49.8438 81.4688 49.7713C81.3963 49.6987 81.3388 49.6126 81.2996 49.5178C81.2603 49.4231 81.2402 49.3215 81.2402 49.2189V46.0949C81.2402 45.9923 81.2603 45.8908 81.2996 45.796C81.3388 45.7012 81.3963 45.6151 81.4688 45.5426C81.5413 45.47 81.6274 45.4125 81.7222 45.3732C81.817 45.334 81.9185 45.3138 82.0211 45.3138H88.2691C88.701 45.3138 89.0504 45.6633 89.0504 46.0949V49.2189C89.0504 49.3215 89.0303 49.4231 88.991 49.5179C88.9518 49.6127 88.8942 49.6989 88.8217 49.7714C88.7491 49.8439 88.663 49.9015 88.5682 49.9407C88.4734 49.9799 88.3717 50.0001 88.2691 50ZM82.8023 48.4379H87.4883V46.8758H82.8023V48.4379ZM85.1453 68.7443C83.8533 68.7443 82.8023 67.6933 82.8023 66.4013C82.8023 65.1094 83.8533 64.0584 85.1453 64.0584C86.4373 64.0584 87.4883 65.1094 87.4883 66.4013C87.4883 67.6933 86.4375 68.7443 85.1453 68.7443ZM85.1453 65.6203C84.715 65.6203 84.3641 65.9711 84.3641 66.4013C84.3645 66.6084 84.447 66.8068 84.5934 66.9531C84.7398 67.0995 84.9383 67.1818 85.1453 67.1822C85.3523 67.1818 85.5507 67.0994 85.697 66.953C85.8434 66.8067 85.9258 66.6083 85.9262 66.4013C85.9258 66.1943 85.8434 65.9959 85.6971 65.8495C85.5507 65.7031 85.3523 65.6207 85.1453 65.6203Z" fill="black"/>
<path d="M86.2501 66.0778C86.0956 66.0777 85.9446 66.0319 85.8162 65.9461C85.6878 65.8603 85.5877 65.7383 85.5286 65.5957C85.4694 65.453 85.454 65.2959 85.4841 65.1445C85.5142 64.993 85.5885 64.8538 85.6977 64.7446L90.843 59.6008C90.9155 59.5283 91.0016 59.4708 91.0964 59.4316C91.1911 59.3923 91.2927 59.3721 91.3952 59.3721C91.4978 59.3721 91.5993 59.3923 91.6941 59.4316C91.7888 59.4709 91.8749 59.5284 91.9474 59.6009C92.0199 59.6734 92.0774 59.7595 92.1167 59.8543C92.1559 59.949 92.1761 60.0506 92.1761 60.1531C92.1761 60.2557 92.1559 60.3572 92.1166 60.452C92.0774 60.5467 92.0198 60.6328 91.9473 60.7053L86.8024 65.8489C86.73 65.9215 86.6439 65.9792 86.5491 66.0184C86.4543 66.0577 86.3527 66.0779 86.2501 66.0778ZM85.1456 54.686C84.7137 54.686 84.3643 54.3367 84.3643 53.9051V52.343C84.3643 52.2404 84.3845 52.1388 84.4237 52.0441C84.463 51.9493 84.5205 51.8632 84.5931 51.7907C84.6657 51.7181 84.7518 51.6606 84.8466 51.6214C84.9414 51.5822 85.043 51.5621 85.1456 51.5621C85.2481 51.5621 85.3497 51.5822 85.4444 51.6215C85.5392 51.6607 85.6253 51.7182 85.6978 51.7907C85.7703 51.8632 85.8279 51.9494 85.8671 52.0441C85.9063 52.1389 85.9265 52.2404 85.9264 52.343V53.9051C85.9265 54.0077 85.9063 54.1092 85.8671 54.204C85.8279 54.2988 85.7703 54.3849 85.6978 54.4574C85.6253 54.5299 85.5392 54.5874 85.4444 54.6266C85.3497 54.6659 85.2481 54.686 85.1456 54.686ZM85.1456 81.2405C84.7137 81.2405 84.3643 80.891 84.3643 80.4594V78.8975C84.3643 78.7949 84.3844 78.6933 84.4237 78.5985C84.4629 78.5037 84.5205 78.4176 84.593 78.345C84.6656 78.2725 84.7517 78.2149 84.8465 78.1757C84.9413 78.1365 85.043 78.1164 85.1456 78.1164C85.2481 78.1164 85.3497 78.1366 85.4445 78.1758C85.5393 78.215 85.6254 78.2726 85.6979 78.3451C85.7704 78.4176 85.8279 78.5038 85.8671 78.5985C85.9063 78.6933 85.9265 78.7949 85.9264 78.8975V80.4594C85.9265 80.562 85.9063 80.6635 85.8671 80.7583C85.8279 80.8531 85.7704 80.9392 85.6978 81.0117C85.6253 81.0843 85.5392 81.1418 85.4445 81.1811C85.3497 81.2203 85.2481 81.2405 85.1456 81.2405ZM78.8975 56.361C78.7603 56.3608 78.6255 56.3247 78.5066 56.2561C78.3877 56.1876 78.2888 56.089 78.22 55.9703L77.4391 54.6158C77.2239 54.242 77.3536 53.7647 77.726 53.5479C77.9057 53.4445 78.1191 53.4167 78.3192 53.4705C78.5194 53.5243 78.6901 53.6553 78.7938 53.8348L79.5747 55.1895C79.7899 55.5631 79.6602 56.0405 79.2881 56.2573C79.1691 56.3251 79.0345 56.3609 78.8975 56.361ZM92.1747 79.3567C92.0375 79.3564 91.9029 79.3202 91.7841 79.2517C91.6653 79.1832 91.5665 79.0848 91.4975 78.9662L90.7163 77.6131C90.613 77.4334 90.5853 77.2201 90.6391 77.0199C90.6928 76.8198 90.8238 76.6491 91.0032 76.5453C91.1829 76.4421 91.3962 76.4144 91.5963 76.4681C91.7964 76.5219 91.9671 76.6527 92.071 76.8321L92.8522 78.1852C92.9555 78.3646 92.9833 78.5778 92.9295 78.7777C92.8757 78.9776 92.7447 79.148 92.5653 79.2514C92.4468 79.3208 92.3119 79.3571 92.1747 79.3567ZM74.3245 60.934C74.1875 60.9339 74.0529 60.8982 73.9338 60.8305L72.5792 60.0494C72.2069 59.8328 72.0772 59.3553 72.2922 58.9817C72.3959 58.8021 72.5665 58.671 72.7667 58.6172C72.967 58.5634 73.1803 58.5913 73.36 58.6948L74.7147 59.4758C74.8939 59.5798 75.0246 59.7505 75.0784 59.9505C75.1321 60.1506 75.1045 60.3638 75.0016 60.5436C74.9328 60.6623 74.8341 60.7608 74.7152 60.8293C74.5964 60.8978 74.4616 60.9339 74.3245 60.934ZM97.3184 74.2114C97.1819 74.2111 97.0479 74.1753 96.9294 74.1076L95.5762 73.3266C95.3969 73.2227 95.2661 73.052 95.2124 72.8519C95.1587 72.6518 95.1865 72.4385 95.2897 72.2588C95.3935 72.0794 95.5642 71.9485 95.7643 71.8948C95.9645 71.8411 96.1778 71.8689 96.3575 71.9721L97.7106 72.7532C97.89 72.8569 98.0209 73.0277 98.0744 73.228C98.1279 73.4282 98.0997 73.6415 97.9959 73.8209C97.9274 73.9399 97.8287 74.0387 97.7097 74.1073C97.5907 74.1758 97.4557 74.2117 97.3184 74.2114ZM72.6495 67.1823H71.0874C70.9848 67.1823 70.8832 67.1622 70.7884 67.123C70.6937 67.0838 70.6076 67.0262 70.535 66.9537C70.4625 66.8812 70.405 66.7951 70.3658 66.7003C70.3266 66.6055 70.3064 66.504 70.3065 66.4014C70.3064 66.2988 70.3265 66.1972 70.3657 66.1024C70.4049 66.0076 70.4624 65.9215 70.535 65.8489C70.6075 65.7764 70.6936 65.7189 70.7884 65.6796C70.8832 65.6404 70.9848 65.6203 71.0874 65.6203H72.6495C72.752 65.6203 72.8536 65.6404 72.9484 65.6796C73.0432 65.7189 73.1293 65.7764 73.2019 65.8489C73.2744 65.9215 73.3319 66.0076 73.3711 66.1024C73.4103 66.1972 73.4304 66.2988 73.4303 66.4014C73.4304 66.504 73.4103 66.6055 73.371 66.7003C73.3318 66.7951 73.2743 66.8812 73.2018 66.9537C73.1293 67.0262 73.0431 67.0838 72.9484 67.123C72.8536 67.1622 72.752 67.1823 72.6495 67.1823ZM99.204 67.1823H97.6418C97.21 67.1823 96.8606 66.833 96.8606 66.4014C96.8605 66.2988 96.8807 66.1972 96.92 66.1024C96.9592 66.0076 97.0168 65.9215 97.0893 65.8489C97.1619 65.7764 97.248 65.7189 97.3428 65.6796C97.4376 65.6404 97.5392 65.6203 97.6418 65.6203H99.204C99.3065 65.6203 99.4081 65.6405 99.5029 65.6797C99.5977 65.7189 99.6838 65.7765 99.7563 65.849C99.8288 65.9215 99.8863 66.0077 99.9255 66.1025C99.9648 66.1972 99.9849 66.2988 99.9848 66.4014C99.9849 66.504 99.9647 66.6055 99.9255 66.7003C99.8863 66.795 99.8287 66.8811 99.7562 66.9537C99.6837 67.0262 99.5976 67.0837 99.5028 67.1229C99.4081 67.1621 99.3065 67.1823 99.204 67.1823ZM72.9698 74.2114C72.8326 74.2112 72.6978 74.1751 72.5789 74.1066C72.46 74.0381 72.3612 73.9396 72.2922 73.8209C72.1892 73.6412 72.1616 73.4279 72.2153 73.2278C72.2691 73.0277 72.3999 72.8571 72.5792 72.7532L73.9338 71.9721C74.1136 71.869 74.3268 71.8413 74.5269 71.895C74.727 71.9488 74.8977 72.0796 75.0016 72.2588C75.1046 72.4386 75.1323 72.6518 75.0785 72.8519C75.0247 73.052 74.8939 73.2227 74.7147 73.3266L73.36 74.1076C73.2412 74.1755 73.1067 74.2113 72.9698 74.2114ZM95.9669 60.934C95.8297 60.9337 95.695 60.8975 95.5762 60.829C95.4574 60.7605 95.3586 60.6621 95.2897 60.5436C95.1864 60.3639 95.1586 60.1506 95.2123 59.9505C95.266 59.7503 95.3969 59.5796 95.5762 59.4758L96.9294 58.6948C97.3001 58.4795 97.7794 58.6078 97.9959 58.9817C98.0996 59.1611 98.1278 59.3744 98.0743 59.5746C98.0208 59.7748 97.89 59.9456 97.7106 60.0494L96.3575 60.8305C96.2386 60.8987 96.1039 60.9344 95.9669 60.934ZM78.1163 79.358C77.9794 79.3579 77.8449 79.3222 77.726 79.2543C77.3538 79.0377 77.2241 78.5602 77.4391 78.1866L78.22 76.8319C78.3237 76.6523 78.4944 76.5212 78.6947 76.4674C78.895 76.4137 79.1084 76.4416 79.2881 76.5451C79.4672 76.6492 79.5978 76.8199 79.6515 77.02C79.7052 77.22 79.6776 77.4332 79.5747 77.6129L78.7938 78.9676C78.7249 79.0863 78.6261 79.1848 78.5072 79.2533C78.3883 79.3218 78.2535 79.3579 78.1163 79.358ZM91.3938 56.361C91.261 56.361 91.1268 56.3274 91.0032 56.2573C90.8241 56.1532 90.6934 55.9825 90.6397 55.7825C90.5859 55.5825 90.6135 55.3693 90.7163 55.1895L91.4975 53.8348C91.6012 53.6553 91.7718 53.5242 91.972 53.4704C92.1722 53.4166 92.3856 53.4445 92.5653 53.5479C92.7444 53.652 92.8751 53.8227 92.9288 54.0227C92.9826 54.2228 92.955 54.436 92.8522 54.6158L92.071 55.9703C92.0022 56.0891 91.9034 56.1876 91.7846 56.2562C91.6658 56.3247 91.531 56.3609 91.3938 56.361ZM38.2856 74.9924C38.1531 74.9926 38.0227 74.9591 37.9068 74.8951C37.7908 74.831 37.693 74.7385 37.6227 74.6262L30.4747 63.1887L23.3266 74.6262C23.2724 74.7133 23.2015 74.7889 23.118 74.8485C23.0344 74.9081 22.94 74.9507 22.8399 74.9736C22.7399 74.9966 22.6364 74.9996 22.5352 74.9824C22.434 74.9652 22.3373 74.9282 22.2504 74.8735C22.0749 74.7634 21.9502 74.5882 21.9037 74.3863C21.8572 74.1843 21.8928 73.9722 22.0026 73.7965L29.8127 61.3004C30.0979 60.8457 30.8514 60.8457 31.1368 61.3004L38.9467 73.7965C39.0205 73.9147 39.0614 74.0505 39.0651 74.1898C39.0688 74.3291 39.0352 74.4669 38.9678 74.5888C38.9004 74.7108 38.8016 74.8125 38.6816 74.8835C38.5617 74.9544 38.425 74.992 38.2856 74.9924Z" fill="black"/>
<path d="M14.8535 74.9924C14.7107 74.9922 14.5706 74.9529 14.4486 74.8786C14.3265 74.8044 14.2272 74.6981 14.1614 74.5713C14.0955 74.4446 14.0657 74.3022 14.0752 74.1596C14.0847 74.0171 14.133 73.8799 14.215 73.7629L19.7035 65.9528C19.7755 65.8501 19.8712 65.7663 19.9824 65.7085C20.0937 65.6506 20.2172 65.6204 20.3426 65.6204H20.3441C20.599 65.6204 20.8377 65.7456 20.9832 65.9543L24.7807 71.4002C24.8956 71.5703 24.939 71.7787 24.9016 71.9805C24.8641 72.1823 24.7487 72.3612 24.5804 72.4786C24.412 72.596 24.2043 72.6425 24.002 72.6079C23.7996 72.5734 23.6191 72.4606 23.4992 72.294L20.34 67.7637L15.4932 74.66C15.4211 74.7627 15.3254 74.8466 15.214 74.9045C15.1027 74.9623 14.979 74.9925 14.8535 74.9924ZM77.3352 48.4379H8.60625C8.50367 48.438 8.40208 48.4178 8.30729 48.3786C8.21251 48.3394 8.12638 48.2818 8.05385 48.2093C7.98131 48.1367 7.92378 48.0506 7.88454 47.9558C7.84531 47.8611 7.82514 47.7595 7.8252 47.6569V30.4747C7.82514 30.3721 7.84531 30.2705 7.88454 30.1757C7.92378 30.0809 7.98131 29.9948 8.05385 29.9223C8.12638 29.8497 8.21251 29.7922 8.30729 29.753C8.40208 29.7137 8.50367 29.6936 8.60625 29.6936H77.3352C77.4377 29.6935 77.5393 29.7137 77.6341 29.7529C77.7289 29.7921 77.815 29.8497 77.8875 29.9222C77.9601 29.9948 78.0176 30.0809 78.0568 30.1757C78.096 30.2705 78.1161 30.3721 78.116 30.4747V47.6569C78.1161 47.7595 78.096 47.8611 78.0568 47.9559C78.0176 48.0507 77.9601 48.1368 77.8875 48.2093C77.815 48.2819 77.7289 48.3394 77.6341 48.3786C77.5393 48.4179 77.4377 48.438 77.3352 48.4379ZM9.3873 46.876H76.5543V31.2557H9.3873V46.876Z" fill="black"/>
<path d="M39.8467 74.9924H8.60625C8.50367 74.9925 8.40208 74.9723 8.30729 74.9331C8.21251 74.8938 8.12638 74.8363 8.05385 74.7638C7.98131 74.6912 7.92378 74.6051 7.88454 74.5103C7.84531 74.4155 7.82514 74.3139 7.8252 74.2114V52.343C7.82514 52.2404 7.84531 52.1388 7.88455 52.0441C7.92378 51.9493 7.98132 51.8632 8.05386 51.7907C8.1264 51.7181 8.21252 51.6606 8.30731 51.6214C8.40209 51.5822 8.50367 51.5621 8.60625 51.5621H39.8467C39.9493 51.5621 40.0508 51.5822 40.1456 51.6214C40.2404 51.6606 40.3265 51.7181 40.3991 51.7907C40.4716 51.8632 40.5291 51.9493 40.5684 52.0441C40.6076 52.1388 40.6278 52.2404 40.6277 52.343V74.2114C40.6278 74.3139 40.6076 74.4155 40.5684 74.5103C40.5292 74.6051 40.4716 74.6912 40.3991 74.7638C40.3265 74.8363 40.2404 74.8938 40.1456 74.9331C40.0509 74.9723 39.9493 74.9925 39.8467 74.9924ZM9.3873 73.4303H39.0656V53.124H9.3873V73.4303Z" fill="black"/>
<path d="M14.0732 60.934C12.3504 60.934 10.9492 59.5338 10.9492 57.8101C10.9492 56.0863 12.3504 54.6859 14.0732 54.6859C15.7963 54.6859 17.1973 56.0863 17.1973 57.8101C17.1973 59.5338 15.7963 60.934 14.0732 60.934ZM14.0732 56.248C13.2123 56.248 12.5113 56.9498 12.5113 57.8101C12.5113 58.6703 13.2123 59.372 14.0732 59.372C14.9344 59.372 15.6354 58.6703 15.6354 57.8101C15.6354 56.9498 14.9344 56.248 14.0732 56.248ZM67.9633 54.6859H44.5326C44.43 54.686 44.3285 54.6658 44.2337 54.6266C44.1389 54.5874 44.0528 54.5299 43.9802 54.4574C43.9077 54.3849 43.8502 54.2988 43.8109 54.204C43.7717 54.1092 43.7515 54.0076 43.7516 53.9051C43.7515 53.8025 43.7717 53.7009 43.8109 53.6061C43.8501 53.5113 43.9077 53.4252 43.9802 53.3526C44.0527 53.2801 44.1389 53.2226 44.2337 53.1833C44.3284 53.1441 44.43 53.1239 44.5326 53.124H67.9631C68.0657 53.1239 68.1672 53.1441 68.262 53.1834C68.3568 53.2226 68.4429 53.2801 68.5154 53.3527C68.5879 53.4252 68.6455 53.5113 68.6847 53.6061C68.7239 53.7009 68.744 53.8025 68.7439 53.9051C68.744 54.0076 68.7239 54.1092 68.6847 54.2039C68.6455 54.2987 68.588 54.3848 68.5155 54.4573C68.443 54.5298 68.3569 54.5873 68.2621 54.6266C68.1674 54.6658 68.0658 54.686 67.9633 54.6859ZM66.4012 59.372H44.5326C44.43 59.3721 44.3284 59.3519 44.2337 59.3127C44.1389 59.2735 44.0527 59.2159 43.9802 59.1434C43.9077 59.0709 43.8501 58.9847 43.8109 58.8899C43.7717 58.7952 43.7515 58.6936 43.7516 58.591C43.7515 58.4884 43.7717 58.3868 43.8109 58.2921C43.8502 58.1973 43.9077 58.1112 43.9802 58.0387C44.0528 57.9661 44.1389 57.9086 44.2337 57.8694C44.3285 57.8302 44.43 57.8101 44.5326 57.8101H66.401C66.5035 57.8101 66.6051 57.8302 66.6999 57.8694C66.7947 57.9086 66.8808 57.9661 66.9533 58.0387C67.0258 58.1112 67.0833 58.1973 67.1226 58.2921C67.1618 58.3869 67.1819 58.4884 67.1818 58.591C67.182 58.6936 67.1619 58.7952 67.1227 58.8899C67.0835 58.9847 67.026 59.0709 66.9535 59.1434C66.881 59.216 66.7949 59.2735 66.7001 59.3127C66.6053 59.352 66.5037 59.3721 66.4012 59.372ZM64.8391 64.0584H44.5326C44.101 64.0584 43.7516 63.709 43.7516 63.2773C43.7516 62.8457 44.101 62.4963 44.5326 62.4963H64.8389C65.2707 62.4963 65.6201 62.8457 65.6201 63.2773C65.6201 63.709 65.2709 64.0584 64.8391 64.0584ZM64.8391 68.7443H44.5326C44.101 68.7443 43.7516 68.3949 43.7516 67.9633C43.7516 67.5316 44.101 67.1822 44.5326 67.1822H64.8389C65.2707 67.1822 65.6201 67.5316 65.6201 67.9633C65.6201 68.3949 65.2709 68.7443 64.8391 68.7443ZM66.4012 73.4303H44.5326C44.43 73.4303 44.3285 73.4102 44.2337 73.371C44.1389 73.3318 44.0528 73.2742 43.9802 73.2017C43.9077 73.1292 43.8502 73.0431 43.8109 72.9483C43.7717 72.8535 43.7515 72.752 43.7516 72.6494C43.7515 72.5468 43.7717 72.4452 43.8109 72.3504C43.8501 72.2556 43.9077 72.1695 43.9802 72.097C44.0527 72.0244 44.1389 71.9669 44.2337 71.9277C44.3284 71.8885 44.43 71.8683 44.5326 71.8683H66.401C66.5036 71.8683 66.6051 71.8884 66.6999 71.9276C66.7947 71.9669 66.8808 72.0244 66.9534 72.0969C67.0259 72.1695 67.0834 72.2556 67.1226 72.3504C67.1618 72.4452 67.1819 72.5468 67.1818 72.6494C67.182 72.752 67.1619 72.8535 67.1227 72.9483C67.0835 73.0431 67.026 73.1292 66.9535 73.2018C66.881 73.2743 66.7949 73.3318 66.7001 73.371C66.6053 73.4102 66.5037 73.4304 66.4012 73.4303ZM69.525 37.5039H16.4164C15.9848 37.5039 15.6354 37.1547 15.6354 36.7228C15.6354 36.291 15.9846 35.9418 16.4164 35.9418H69.525C69.9568 35.9418 70.3062 36.291 70.3062 36.7228C70.3062 37.1547 69.9568 37.5039 69.525 37.5039ZM60.1529 42.1898H25.7885C25.6859 42.1899 25.5843 42.1697 25.4895 42.1305C25.3947 42.0912 25.3086 42.0337 25.2361 41.9612C25.1635 41.8886 25.106 41.8025 25.0668 41.7077C25.0275 41.6129 25.0074 41.5113 25.0074 41.4088C25.0074 41.3062 25.0275 41.2046 25.0668 41.1098C25.106 41.015 25.1635 40.9289 25.2361 40.8564C25.3086 40.7838 25.3947 40.7263 25.4895 40.6871C25.5843 40.6478 25.6859 40.6277 25.7885 40.6277H60.1529C60.2555 40.6277 60.3571 40.6478 60.4519 40.6871C60.5466 40.7263 60.6327 40.7838 60.7053 40.8564C60.7778 40.9289 60.8353 41.015 60.8745 41.1098C60.9137 41.2046 60.9339 41.3062 60.9338 41.4088C60.9339 41.5113 60.9138 41.6129 60.8746 41.7077C60.8354 41.8025 60.7779 41.8887 60.7053 41.9612C60.6328 42.0338 60.5467 42.0913 60.4519 42.1305C60.3571 42.1697 60.2555 42.1899 60.1529 42.1898Z" fill="black"/>
</svg>
