<svg width="100" height="100" viewBox="0 0 100 100" fill="none" xmlns="http://www.w3.org/2000/svg">
<path d="M28.9591 15.6361C28.528 15.6361 28.1704 15.2869 28.1704 14.855C28.1704 14.4232 28.512 14.074 28.9437 14.074H28.9589C29.3905 14.074 29.7399 14.4232 29.7399 14.855C29.7399 15.2869 29.3909 15.6361 28.9591 15.6361ZM32.0831 15.6361C31.6522 15.6361 31.2946 15.2869 31.2946 14.855C31.2946 14.4232 31.6362 14.074 32.0679 14.074H32.0831C32.5149 14.074 32.8642 14.4232 32.8642 14.855C32.8642 15.2869 32.5149 15.6361 32.0831 15.6361ZM35.2071 15.6361C34.7763 15.6361 34.4185 15.2869 34.4185 14.855C34.4185 14.4232 34.7603 14.074 35.1917 14.074H35.2069C35.6388 14.074 35.988 14.4232 35.988 14.855C35.988 15.2869 35.639 15.6361 35.2071 15.6361Z" fill="black"/>
<path d="M75.7734 17.1983H25.7889C25.6863 17.1983 25.5847 17.1782 25.4899 17.1389C25.3951 17.0997 25.309 17.0422 25.2365 16.9696C25.1639 16.8971 25.1064 16.811 25.0672 16.7162C25.0279 16.6214 25.0078 16.5198 25.0078 16.4172V14.8551C25.0078 13.5631 26.0588 12.512 27.3508 12.512H74.2115C75.5035 12.512 76.5545 13.5631 76.5545 14.8551V16.4172C76.5546 16.5198 76.5344 16.6214 76.4952 16.7162C76.456 16.811 76.3984 16.8972 76.3259 16.9697C76.2534 17.0422 76.1672 17.0998 76.0724 17.139C75.9776 17.1782 75.876 17.1984 75.7734 17.1983ZM26.5699 15.6362H74.9926V14.8551C74.9923 14.6481 74.91 14.4496 74.7636 14.3032C74.6172 14.1568 74.4188 14.0744 74.2117 14.0741H27.351C27.1439 14.0742 26.9453 14.1566 26.7989 14.303C26.6524 14.4495 26.5701 14.648 26.5699 14.8551V15.6362Z" fill="black"/>
<path d="M75.7734 50.0006H25.7889C25.6863 50.0006 25.5847 49.9804 25.4899 49.9412C25.3951 49.902 25.309 49.8444 25.2365 49.7719C25.1639 49.6994 25.1064 49.6133 25.0672 49.5185C25.0279 49.4237 25.0078 49.3221 25.0078 49.2195V16.4172C25.0078 16.3146 25.0279 16.213 25.0672 16.1182C25.1064 16.0234 25.1639 15.9373 25.2365 15.8648C25.309 15.7922 25.3951 15.7347 25.4899 15.6955C25.5847 15.6562 25.6863 15.6361 25.7889 15.6361H75.7734C76.2053 15.6361 76.5547 15.9855 76.5547 16.4172V49.2195C76.5547 49.3221 76.5346 49.4237 76.4953 49.5185C76.4561 49.6133 76.3985 49.6994 76.326 49.772C76.2534 49.8445 76.1673 49.902 76.0725 49.9413C75.9776 49.9805 75.876 50.0006 75.7734 50.0006ZM26.5699 48.4386H74.9926V17.1982H26.5699V48.4386Z" fill="black"/>
<path d="M72.6496 29.6946H28.9129C28.8103 29.6946 28.7087 29.6744 28.6139 29.6352C28.5191 29.596 28.433 29.5384 28.3605 29.4659C28.288 29.3934 28.2304 29.3072 28.1912 29.2125C28.152 29.1177 28.1318 29.0161 28.1318 28.9135V19.5414C28.1318 19.4388 28.152 19.3373 28.1912 19.2425C28.2304 19.1477 28.288 19.0616 28.3605 18.989C28.433 18.9165 28.5191 18.859 28.6139 18.8197C28.7087 18.7805 28.8103 18.7603 28.9129 18.7604H72.6496C72.7522 18.7603 72.8538 18.7805 72.9485 18.8197C73.0433 18.859 73.1294 18.9165 73.2019 18.989C73.2745 19.0616 73.332 19.1477 73.3712 19.2425C73.4104 19.3373 73.4305 19.4389 73.4305 19.5414V28.9135C73.4305 29.0161 73.4104 29.1177 73.3712 29.2124C73.332 29.3072 73.2745 29.3934 73.2019 29.4659C73.1294 29.5384 73.0433 29.596 72.9485 29.6352C72.8538 29.6744 72.7522 29.6946 72.6496 29.6946ZM29.6939 28.1324H71.8688V20.3223H29.6939V28.1324Z" fill="black"/>
<path d="M67.9637 25.0082H33.599C33.1674 25.0082 32.818 24.6589 32.818 24.2271C32.818 23.7953 33.1674 23.446 33.599 23.446H67.9637C68.3951 23.446 68.7445 23.7953 68.7445 24.2271C68.7445 24.6589 68.3951 25.0082 67.9637 25.0082ZM72.6496 34.3804H52.3432C51.9117 34.3804 51.5623 34.0312 51.5623 33.5994C51.5623 33.1675 51.9117 32.8183 52.3432 32.8183H72.6496C73.0814 32.8183 73.4305 33.1675 73.4305 33.5994C73.4305 34.0312 73.0814 34.3804 72.6496 34.3804ZM72.6496 37.5044H52.3432C51.9117 37.5044 51.5623 37.1552 51.5623 36.7234C51.5623 36.2916 51.9117 35.9423 52.3432 35.9423H72.6496C73.0814 35.9423 73.4305 36.2916 73.4305 36.7234C73.4305 37.1552 73.0814 37.5044 72.6496 37.5044ZM72.6496 40.6285H52.3432C51.9117 40.6285 51.5623 40.2792 51.5623 39.8474C51.5623 39.4156 51.9117 39.0664 52.3432 39.0664H72.6496C73.0814 39.0664 73.4305 39.4156 73.4305 39.8474C73.4305 40.2792 73.0814 40.6285 72.6496 40.6285ZM62.4963 43.7525H52.3432C52.2406 43.7525 52.139 43.7324 52.0442 43.6931C51.9495 43.6539 51.8634 43.5964 51.7908 43.5238C51.7183 43.4513 51.6608 43.3652 51.6216 43.2704C51.5824 43.1756 51.5622 43.074 51.5623 42.9714C51.5623 42.8689 51.5824 42.7673 51.6216 42.6725C51.6609 42.5778 51.7184 42.4916 51.7909 42.4191C51.8634 42.3466 51.9495 42.289 52.0443 42.2498C52.139 42.2105 52.2406 42.1904 52.3432 42.1904H62.4963C62.5989 42.1903 62.7004 42.2105 62.7952 42.2497C62.89 42.289 62.9761 42.3465 63.0486 42.419C63.1211 42.4916 63.1787 42.5777 63.2179 42.6725C63.2571 42.7673 63.2772 42.8689 63.2771 42.9714C63.2773 43.074 63.2572 43.1756 63.218 43.2704C63.1788 43.3652 63.1213 43.4514 63.0487 43.5239C62.9762 43.5965 62.8901 43.654 62.7953 43.6932C62.7005 43.7325 62.5989 43.7526 62.4963 43.7525ZM49.2191 46.8765H28.9129C28.8103 46.8766 28.7087 46.8564 28.6139 46.8172C28.5191 46.7779 28.433 46.7204 28.3605 46.6479C28.288 46.5753 28.2304 46.4892 28.1912 46.3944C28.152 46.2996 28.1318 46.198 28.1318 46.0955V32.0373C28.1318 31.9347 28.152 31.8331 28.1912 31.7383C28.2304 31.6435 28.288 31.5574 28.3605 31.4849C28.433 31.4123 28.5191 31.3548 28.6139 31.3156C28.7087 31.2763 28.8103 31.2561 28.9129 31.2562H49.2191C49.3217 31.2561 49.4233 31.2763 49.5181 31.3156C49.6129 31.3548 49.699 31.4123 49.7715 31.4849C49.8441 31.5574 49.9016 31.6435 49.9408 31.7383C49.9801 31.8331 50.0002 31.9347 50.0002 32.0373V46.0955C50.0002 46.198 49.9801 46.2996 49.9408 46.3944C49.9016 46.4892 49.8441 46.5753 49.7715 46.6479C49.699 46.7204 49.6129 46.7779 49.5181 46.8172C49.4233 46.8564 49.3217 46.8766 49.2191 46.8765ZM29.6939 45.3146H48.4383V32.8185H29.6939V45.3146Z" fill="black"/>
<path d="M47.6576 46.8765C47.5227 46.8768 47.39 46.842 47.2725 46.7756C47.155 46.7091 47.0567 46.6134 46.9873 46.4976L42.9709 39.8033L38.9545 46.4976C38.9018 46.5856 38.8322 46.6623 38.7498 46.7234C38.6674 46.7844 38.5738 46.8287 38.4742 46.8535C38.3747 46.8784 38.2713 46.8834 38.1699 46.8682C38.0684 46.8531 37.9709 46.8181 37.883 46.7652C37.7951 46.7124 37.7184 46.6429 37.6573 46.5605C37.5963 46.4781 37.5521 46.3844 37.5272 46.2849C37.5023 46.1854 37.4973 46.082 37.5124 45.9806C37.5275 45.8791 37.5625 45.7817 37.6153 45.6937L42.3014 37.8836C42.5836 37.4136 43.3584 37.4136 43.6407 37.8836L48.3266 45.6937C48.3977 45.8122 48.4361 45.9474 48.4379 46.0855C48.4397 46.2237 48.4048 46.3598 48.3368 46.4801C48.2688 46.6003 48.1701 46.7004 48.0508 46.7701C47.9315 46.8397 47.7958 46.8764 47.6576 46.8765Z" fill="black"/>
<path d="M33.5979 46.8766C33.444 46.8765 33.2935 46.8308 33.1655 46.7454C33.0801 46.6886 33.0067 46.6154 32.9496 46.5302C32.8924 46.445 32.8527 46.3494 32.8325 46.2488C32.8124 46.1482 32.8123 46.0446 32.8323 45.944C32.8523 45.8434 32.8919 45.7476 32.9489 45.6624L36.0729 40.9762C36.3628 40.5415 37.0827 40.5415 37.3725 40.9762L39.7407 44.5274C39.7976 44.6127 39.8372 44.7084 39.8572 44.809C39.8771 44.9096 39.877 45.0132 39.8569 45.1138C39.8368 45.2144 39.797 45.31 39.7399 45.3952C39.6828 45.4804 39.6095 45.5536 39.5241 45.6104C39.3517 45.725 39.1408 45.7666 38.9378 45.726C38.7348 45.6854 38.5562 45.5659 38.4411 45.3938L36.7227 42.8174L34.2485 46.5288C34.1772 46.6359 34.0804 46.7238 33.9669 46.7845C33.8534 46.8451 33.7266 46.8768 33.5979 46.8766Z" fill="black"/>
<path d="M33.5988 39.0666C32.3068 39.0666 31.2559 38.0154 31.2559 36.7234C31.2559 35.4314 32.3068 34.3802 33.5988 34.3802C34.8908 34.3802 35.9418 35.4312 35.9418 36.7234C35.9418 38.0154 34.8908 39.0666 33.5988 39.0666ZM33.5988 35.9426C33.168 35.9426 32.8178 36.2926 32.8178 36.7236C32.8178 37.1547 33.168 37.5047 33.5988 37.5047C34.0297 37.5047 34.3799 37.1547 34.3799 36.7236C34.3799 36.2926 34.0297 35.9426 33.5988 35.9426Z" fill="black"/>
<path d="M4.74766 73.4318C4.3168 73.4318 3.95898 73.0826 3.95898 72.6509C3.95898 72.2191 4.30078 71.8699 4.73223 71.8699H4.74746C4.85005 71.8698 4.95165 71.8899 5.04645 71.9292C5.14125 71.9684 5.22738 72.0259 5.29992 72.0985C5.37247 72.171 5.42999 72.2571 5.46922 72.3519C5.50844 72.4467 5.52859 72.5483 5.52852 72.6509C5.52862 72.7535 5.50849 72.8551 5.46929 72.9499C5.43008 73.0447 5.37257 73.1308 5.30004 73.2033C5.22751 73.2758 5.14138 73.3334 5.0466 73.3726C4.95182 73.4118 4.85023 73.4319 4.74766 73.4318ZM7.87168 73.4318C7.44082 73.4318 7.08301 73.0826 7.08301 72.6509C7.08301 72.2191 7.4248 71.8699 7.85625 71.8699H7.87148C7.97407 71.8698 8.07566 71.89 8.17044 71.9292C8.26523 71.9685 8.35135 72.026 8.42389 72.0985C8.49643 72.1711 8.55396 72.2572 8.59319 72.352C8.63242 72.4468 8.65259 72.5483 8.65254 72.6509C8.65264 72.7535 8.63251 72.8551 8.59331 72.9499C8.5541 73.0447 8.49659 73.1308 8.42406 73.2033C8.35153 73.2758 8.26541 73.3334 8.17062 73.3726C8.07584 73.4118 7.97425 73.4319 7.87168 73.4318ZM10.9957 73.4318C10.5648 73.4318 10.207 73.0826 10.207 72.6509C10.207 72.2191 10.5488 71.8699 10.9803 71.8699H10.9955C11.0981 71.8698 11.1997 71.89 11.2945 71.9292C11.3893 71.9685 11.4754 72.026 11.5479 72.0985C11.6204 72.1711 11.678 72.2572 11.7172 72.352C11.7564 72.4468 11.7766 72.5483 11.7766 72.6509C11.7767 72.7535 11.7565 72.8551 11.7173 72.9499C11.6781 73.0447 11.6206 73.1308 11.5481 73.2033C11.4756 73.2758 11.3894 73.3334 11.2946 73.3726C11.1999 73.4118 11.0983 73.4319 10.9957 73.4318Z" fill="black"/>
<path d="M27.351 74.9939H0.79668C0.694096 74.994 0.592507 74.9738 0.497722 74.9346C0.402937 74.8953 0.316814 74.8378 0.244276 74.7653C0.171738 74.6927 0.114208 74.6066 0.0749748 74.5118C0.0357413 74.417 0.0155738 74.3155 0.0156251 74.2129V72.651C0.0156251 71.359 1.0666 70.308 2.35859 70.308H25.7889C27.0809 70.308 28.132 71.359 28.132 72.651V74.2129C28.1321 74.3155 28.1119 74.417 28.0727 74.5118C28.0334 74.6066 27.9759 74.6927 27.9034 74.7653C27.8308 74.8378 27.7447 74.8953 27.6499 74.9346C27.5552 74.9738 27.4536 74.994 27.351 74.9939ZM1.57754 73.4318H26.5697V72.651C26.5698 72.5484 26.5496 72.4468 26.5103 72.352C26.4711 72.2573 26.4136 72.1711 26.341 72.0986C26.2685 72.0261 26.1824 71.9685 26.0876 71.9293C25.9928 71.8901 25.8913 71.8699 25.7887 71.8699H2.35859C2.15146 71.87 1.95283 71.9523 1.80636 72.0987C1.6599 72.2452 1.57759 72.4438 1.57754 72.651V73.4318Z" fill="black"/>
<path d="M27.351 93.7381H0.79668C0.694096 93.7382 0.592507 93.718 0.497722 93.6788C0.402937 93.6396 0.316814 93.582 0.244276 93.5095C0.171738 93.4369 0.114208 93.3508 0.0749748 93.256C0.0357413 93.1613 0.0155738 93.0597 0.0156251 92.9571V74.2129C0.0155738 74.1104 0.0357413 74.0088 0.0749748 73.914C0.114208 73.8192 0.171738 73.7331 0.244276 73.6605C0.316814 73.588 0.402937 73.5305 0.497722 73.4912C0.592507 73.452 0.694096 73.4318 0.79668 73.4319H27.351C27.4536 73.4318 27.5552 73.452 27.6499 73.4912C27.7447 73.5305 27.8308 73.588 27.9034 73.6605C27.9759 73.7331 28.0334 73.8192 28.0727 73.914C28.1119 74.0088 28.1321 74.1104 28.132 74.2129V92.9573C28.1321 93.0598 28.1119 93.1614 28.0726 93.2562C28.0334 93.3509 27.9758 93.437 27.9033 93.5096C27.8308 93.5821 27.7447 93.6396 27.6499 93.6788C27.5551 93.718 27.4535 93.7382 27.351 93.7381ZM1.57754 92.176H26.5697V74.9938H1.57754V92.176Z" fill="black"/>
<path d="M24.227 82.804H3.9207C3.81811 82.804 3.71651 82.7839 3.62172 82.7447C3.52692 82.7054 3.44079 82.6479 3.36824 82.5754C3.2957 82.5028 3.23817 82.4167 3.19895 82.3219C3.15972 82.2271 3.13957 82.1255 3.13965 82.0229V77.337C3.1396 77.2344 3.15977 77.1328 3.199 77.038C3.23823 76.9432 3.29576 76.8571 3.3683 76.7846C3.44084 76.712 3.52696 76.6545 3.62175 76.6153C3.71653 76.576 3.81812 76.5559 3.9207 76.5559H24.227C24.3295 76.5559 24.4311 76.576 24.5259 76.6153C24.6207 76.6545 24.7068 76.712 24.7794 76.7846C24.8519 76.8571 24.9094 76.9432 24.9487 77.038C24.9879 77.1328 25.0081 77.2344 25.008 77.337V82.0229C25.0081 82.1255 24.9879 82.2271 24.9487 82.3219C24.9094 82.4166 24.8519 82.5028 24.7794 82.5753C24.7068 82.6478 24.6207 82.7054 24.5259 82.7446C24.4311 82.7838 24.3295 82.804 24.227 82.804ZM4.70156 81.242H23.4457V78.118H4.70156V81.242ZM12.5117 90.6141H3.9207C3.81812 90.6142 3.71653 90.594 3.62175 90.5548C3.52696 90.5155 3.44084 90.458 3.3683 90.3855C3.29576 90.3129 3.23823 90.2268 3.199 90.132C3.15977 90.0372 3.1396 89.9356 3.13965 89.8331V85.1471C3.13957 85.0445 3.15972 84.9429 3.19895 84.8481C3.23817 84.7533 3.2957 84.6672 3.36824 84.5947C3.44079 84.5221 3.52692 84.4646 3.62172 84.4254C3.71651 84.3861 3.81811 84.366 3.9207 84.3661H12.5117C12.6143 84.366 12.7159 84.3862 12.8107 84.4254C12.9055 84.4646 12.9916 84.5222 13.0641 84.5947C13.1367 84.6673 13.1942 84.7534 13.2334 84.8482C13.2727 84.9429 13.2928 85.0445 13.2928 85.1471V89.8331C13.2928 89.9356 13.2727 90.0372 13.2334 90.132C13.1942 90.2268 13.1367 90.3129 13.0641 90.3855C12.9916 90.458 12.9055 90.5155 12.8107 90.5548C12.7159 90.594 12.6143 90.6142 12.5117 90.6141ZM4.70156 89.052H11.7307V85.928H4.70156V89.052ZM24.227 85.928H15.6357C15.5332 85.9281 15.4316 85.9079 15.3368 85.8687C15.242 85.8295 15.1559 85.772 15.0834 85.6995C15.0108 85.6269 14.9533 85.5408 14.914 85.446C14.8748 85.3513 14.8546 85.2497 14.8547 85.1471C14.8546 85.0445 14.8748 84.9429 14.914 84.8482C14.9533 84.7534 15.0108 84.6673 15.0833 84.5947C15.1559 84.5222 15.242 84.4646 15.3368 84.4254C15.4316 84.3862 15.5332 84.366 15.6357 84.3661H24.2268C24.3293 84.366 24.4309 84.3862 24.5257 84.4254C24.6205 84.4646 24.7066 84.5222 24.7792 84.5947C24.8517 84.6673 24.9092 84.7534 24.9485 84.8482C24.9877 84.9429 25.0079 85.0445 25.0078 85.1471C25.0079 85.2497 24.9877 85.3513 24.9485 85.446C24.9093 85.5408 24.8518 85.6269 24.7793 85.6994C24.7068 85.772 24.6206 85.8295 24.5259 85.8687C24.4311 85.9079 24.3295 85.9281 24.227 85.928Z" fill="black"/>
<path d="M24.2268 89.0519H15.6355C15.533 89.052 15.4314 89.0318 15.3366 88.9926C15.2418 88.9533 15.1557 88.8958 15.0831 88.8233C15.0106 88.7507 14.9531 88.6646 14.9138 88.5698C14.8746 88.475 14.8544 88.3734 14.8545 88.2708C14.8544 88.1683 14.8746 88.0667 14.9138 87.9719C14.9531 87.8771 15.0106 87.791 15.0832 87.7185C15.1557 87.646 15.2418 87.5885 15.3366 87.5493C15.4314 87.5101 15.533 87.4899 15.6355 87.49H24.2266C24.3291 87.4899 24.4307 87.5101 24.5255 87.5493C24.6203 87.5885 24.7064 87.646 24.779 87.7185C24.8515 87.791 24.909 87.8771 24.9483 87.9719C24.9875 88.0667 25.0077 88.1683 25.0076 88.2708C25.0077 88.3734 24.9876 88.475 24.9483 88.5698C24.9091 88.6646 24.8516 88.7507 24.7791 88.8232C24.7066 88.8958 24.6205 88.9533 24.5257 88.9926C24.4309 89.0318 24.3293 89.052 24.2268 89.0519Z" fill="black"/>
<path d="M76.6003 73.4318C76.17 73.4318 75.813 73.0826 75.813 72.6509C75.813 72.2191 76.1548 71.8699 76.5851 71.8699H76.6003C76.7029 71.8697 76.8045 71.8898 76.8994 71.929C76.9942 71.9682 77.0804 72.0257 77.1529 72.0982C77.2255 72.1708 77.283 72.257 77.3221 72.3518C77.3613 72.4467 77.3814 72.5483 77.3812 72.6509C77.3813 72.7535 77.3613 72.8551 77.3221 72.95C77.2829 73.0448 77.2254 73.1309 77.1528 73.2035C77.0803 73.276 76.9942 73.3335 76.8993 73.3727C76.8045 73.4119 76.7029 73.432 76.6003 73.4318ZM79.7243 73.4318C79.2944 73.4318 78.9374 73.0826 78.9374 72.6509C78.9374 72.2191 79.2792 71.8699 79.7091 71.8699H79.7243C80.1577 71.8699 80.5056 72.2191 80.5056 72.6509C80.5057 72.7535 80.4856 72.8552 80.4464 72.95C80.4072 73.0449 80.3496 73.131 80.2771 73.2036C80.2045 73.2761 80.1183 73.3336 80.0234 73.3728C79.9286 73.4119 79.8269 73.432 79.7243 73.4318ZM82.8485 73.4318C82.4183 73.4318 82.0612 73.0826 82.0612 72.6509C82.0612 72.2191 82.403 71.8699 82.8333 71.8699H82.8485C82.9511 71.8697 83.0528 71.8898 83.1476 71.929C83.2425 71.9682 83.3286 72.0257 83.4012 72.0982C83.4737 72.1708 83.5312 72.257 83.5704 72.3518C83.6095 72.4467 83.6296 72.5483 83.6294 72.6509C83.6296 72.7535 83.6095 72.8551 83.5703 72.9499C83.5311 73.0447 83.4736 73.1309 83.401 73.2034C83.3285 73.276 83.2424 73.3335 83.1475 73.3727C83.0527 73.4118 82.9511 73.4319 82.8485 73.4318Z" fill="black"/>
<path d="M99.204 74.9939H72.6495C72.5469 74.994 72.4454 74.9738 72.3506 74.9346C72.2558 74.8953 72.1697 74.8378 72.0972 74.7653C72.0247 74.6927 71.9671 74.6066 71.9279 74.5118C71.8887 74.417 71.8686 74.3154 71.8687 74.2129V72.651C71.8687 71.359 72.9196 70.308 74.2116 70.308H97.6419C98.9339 70.308 99.9849 71.359 99.9849 72.651V74.2129C99.9849 74.3154 99.9648 74.417 99.9255 74.5118C99.8863 74.6066 99.8288 74.6927 99.7563 74.7652C99.6838 74.8377 99.5977 74.8953 99.5029 74.9345C99.4081 74.9738 99.3066 74.9939 99.204 74.9939ZM73.4304 73.4318H98.4228V72.651C98.4227 72.4439 98.3404 72.2453 98.1939 72.0988C98.0475 71.9524 97.849 71.8701 97.6419 71.8699H74.2116C73.7813 71.8699 73.4304 72.2191 73.4304 72.651V73.4318Z" fill="black"/>
<path d="M99.204 93.7381H72.6495C72.5469 93.7382 72.4454 93.718 72.3506 93.6788C72.2558 93.6395 72.1697 93.582 72.0972 93.5095C72.0247 93.4369 71.9671 93.3508 71.9279 93.256C71.8887 93.1612 71.8686 93.0597 71.8687 92.9571V74.2129C71.8686 74.1104 71.8887 74.0088 71.9279 73.914C71.9671 73.8192 72.0247 73.7331 72.0972 73.6605C72.1697 73.588 72.2558 73.5305 72.3506 73.4912C72.4454 73.452 72.5469 73.4318 72.6495 73.4319H99.204C99.3066 73.4319 99.4081 73.452 99.5029 73.4913C99.5977 73.5305 99.6838 73.5881 99.7563 73.6606C99.8288 73.7331 99.8863 73.8193 99.9255 73.914C99.9648 74.0088 99.9849 74.1104 99.9849 74.2129V92.9573C99.9849 93.0598 99.9647 93.1614 99.9255 93.2561C99.8862 93.3509 99.8287 93.437 99.7562 93.5095C99.6837 93.582 99.5976 93.6395 99.5029 93.6787C99.4081 93.718 99.3066 93.7382 99.204 93.7381ZM73.4304 92.176H98.4228V74.9938H73.4304V92.176Z" fill="black"/>
<path d="M96.0795 82.804H75.7731C75.6705 82.804 75.5689 82.7838 75.4741 82.7446C75.3793 82.7054 75.2932 82.6478 75.2207 82.5753C75.1482 82.5028 75.0907 82.4166 75.0515 82.3218C75.0123 82.2271 74.9921 82.1255 74.9922 82.0229V77.337C74.9921 77.2344 75.0123 77.1328 75.0515 77.0381C75.0907 76.9433 75.1483 76.8572 75.2208 76.7846C75.2933 76.7121 75.3794 76.6546 75.4742 76.6153C75.5689 76.5761 75.6705 76.5559 75.7731 76.5559H96.0795C96.1821 76.5559 96.2836 76.576 96.3784 76.6153C96.4732 76.6545 96.5593 76.712 96.6318 76.7846C96.7043 76.8571 96.7619 76.9432 96.8011 77.038C96.8403 77.1328 96.8604 77.2344 96.8604 77.337V82.0229C96.8605 82.1255 96.8403 82.2271 96.8011 82.3219C96.7619 82.4167 96.7044 82.5028 96.6319 82.5754C96.5594 82.6479 96.4732 82.7054 96.3785 82.7447C96.2837 82.7839 96.1821 82.804 96.0795 82.804ZM76.5543 81.242H95.2986V78.118H76.5543V81.242ZM84.3641 90.6141H75.7731C75.6705 90.6141 75.5689 90.5939 75.4742 90.5547C75.3794 90.5155 75.2933 90.4579 75.2208 90.3854C75.1483 90.3129 75.0907 90.2267 75.0515 90.132C75.0123 90.0372 74.9921 89.9356 74.9922 89.8331V85.1471C74.9921 85.0445 75.0123 84.943 75.0515 84.8482C75.0907 84.7534 75.1482 84.6673 75.2207 84.5947C75.2932 84.5222 75.3793 84.4647 75.4741 84.4254C75.5689 84.3862 75.6705 84.366 75.7731 84.3661H84.3641C84.7959 84.3661 85.1453 84.7153 85.1453 85.1471V89.8331C85.1454 89.9357 85.1252 90.0373 85.0859 90.1321C85.0467 90.2269 84.9892 90.313 84.9166 90.3855C84.844 90.4581 84.7579 90.5156 84.6631 90.5548C84.5683 90.594 84.4667 90.6142 84.3641 90.6141ZM76.5543 89.052H83.5832V85.928H76.5543V89.052ZM96.0795 85.928H87.4885C87.3859 85.9281 87.2843 85.9079 87.1896 85.8687C87.0948 85.8295 87.0087 85.772 86.9362 85.6994C86.8636 85.6269 86.8061 85.5408 86.7669 85.446C86.7277 85.3513 86.7075 85.2497 86.7076 85.1471C86.7075 85.0445 86.7276 84.9429 86.7668 84.8481C86.806 84.7534 86.8636 84.6672 86.9361 84.5947C87.0086 84.5221 87.0947 84.4646 87.1895 84.4254C87.2843 84.3861 87.3859 84.366 87.4885 84.3661H96.0795C96.1821 84.366 96.2837 84.3861 96.3785 84.4254C96.4732 84.4646 96.5594 84.5221 96.6319 84.5947C96.7044 84.6672 96.7619 84.7534 96.8011 84.8481C96.8403 84.9429 96.8605 85.0445 96.8604 85.1471C96.8604 85.2497 96.8403 85.3513 96.8011 85.446C96.7619 85.5408 96.7043 85.6269 96.6318 85.6994C96.5593 85.772 96.4732 85.8295 96.3784 85.8687C96.2836 85.9079 96.1821 85.9281 96.0795 85.928Z" fill="black"/>
<path d="M96.0799 89.0519H87.4889C87.3863 89.052 87.2847 89.0318 87.1899 88.9926C87.0951 88.9534 87.009 88.8958 86.9365 88.8233C86.8639 88.7508 86.8064 88.6646 86.7672 88.5698C86.728 88.475 86.7079 88.3734 86.708 88.2708C86.7079 88.1683 86.7281 88.0667 86.7673 87.9719C86.8065 87.8772 86.864 87.7911 86.9365 87.7185C87.0091 87.646 87.0952 87.5885 87.19 87.5493C87.2847 87.5101 87.3863 87.4899 87.4889 87.49H96.0799C96.1825 87.4899 96.284 87.5101 96.3788 87.5493C96.4736 87.5885 96.5597 87.646 96.6322 87.7185C96.7047 87.7911 96.7622 87.8772 96.8015 87.9719C96.8407 88.0667 96.8608 88.1683 96.8607 88.2708C96.8608 88.3734 96.8407 88.475 96.8015 88.5698C96.7623 88.6646 96.7048 88.7508 96.6323 88.8233C96.5597 88.8958 96.4736 88.9534 96.3788 88.9926C96.2841 89.0318 96.1825 89.052 96.0799 89.0519Z" fill="black"/>
<path d="M40.6744 78.118C40.2434 78.118 39.8857 77.7688 39.8857 77.337C39.8857 76.9053 40.2273 76.5559 40.659 76.5559H40.6742C40.7768 76.5559 40.8784 76.576 40.9732 76.6153C41.068 76.6545 41.1541 76.712 41.2266 76.7846C41.2992 76.8571 41.3567 76.9432 41.3959 77.038C41.4352 77.1328 41.4553 77.2344 41.4553 77.337C41.4554 77.4395 41.4352 77.5411 41.396 77.6359C41.3568 77.7307 41.2993 77.8168 41.2267 77.8894C41.1542 77.9619 41.0681 78.0194 40.9733 78.0587C40.8786 78.0979 40.777 78.1181 40.6744 78.118ZM43.7984 78.118C43.3674 78.118 43.0098 77.7688 43.0098 77.337C43.0098 76.9053 43.3514 76.5559 43.783 76.5559H43.7982C43.9008 76.5559 44.0024 76.576 44.0972 76.6153C44.192 76.6545 44.2781 76.712 44.3506 76.7846C44.4232 76.8571 44.4807 76.9432 44.5199 77.038C44.5592 77.1328 44.5793 77.2344 44.5793 77.337C44.5794 77.4395 44.5593 77.5411 44.5201 77.6359C44.4809 77.7307 44.4234 77.8169 44.3508 77.8894C44.2783 77.962 44.1922 78.0195 44.0974 78.0587C44.0026 78.0979 43.901 78.1181 43.7984 78.118ZM46.9225 78.118C46.4914 78.118 46.1338 77.7688 46.1338 77.337C46.1338 76.9053 46.4754 76.5559 46.907 76.5559H46.9223C47.0249 76.5559 47.1264 76.576 47.2212 76.6153C47.316 76.6545 47.4021 76.712 47.4747 76.7846C47.5472 76.8571 47.6047 76.9432 47.644 77.038C47.6832 77.1328 47.7034 77.2344 47.7033 77.337C47.7034 77.4396 47.6833 77.5412 47.6441 77.636C47.605 77.7308 47.5474 77.8169 47.4749 77.8895C47.4024 77.962 47.3162 78.0196 47.2215 78.0588C47.1267 78.098 47.0251 78.1181 46.9225 78.118Z" fill="black"/>
<path d="M63.2772 79.6798H36.7229C36.6204 79.6799 36.5188 79.6598 36.424 79.6206C36.3292 79.5813 36.2431 79.5238 36.1706 79.4513C36.098 79.3788 36.0405 79.2927 36.0012 79.1979C35.962 79.1031 35.9418 79.0016 35.9419 78.899V77.3369C35.9419 76.0449 36.9929 74.9939 38.2851 74.9939H61.7155C63.0075 74.9939 64.0585 76.0449 64.0585 77.3369V78.899C64.0585 79.3306 63.7089 79.6798 63.2772 79.6798ZM37.504 78.1179H62.4962V77.3369C62.496 77.1298 62.4137 76.9313 62.2673 76.7848C62.1209 76.6384 61.9224 76.556 61.7153 76.5558H38.2851C38.0779 76.5559 37.8793 76.6382 37.7328 76.7846C37.5864 76.9311 37.5041 77.1297 37.504 77.3369V78.1179Z" fill="black"/>
<path d="M63.2772 98.4242H36.7229C36.6204 98.4242 36.5188 98.4041 36.424 98.3649C36.3292 98.3257 36.2431 98.2682 36.1706 98.1956C36.098 98.1231 36.0405 98.037 36.0012 97.9422C35.962 97.8475 35.9418 97.7459 35.9419 97.6433V78.899C35.9418 78.7964 35.962 78.6948 36.0012 78.6C36.0405 78.5052 36.098 78.4191 36.1705 78.3466C36.2431 78.274 36.3292 78.2165 36.424 78.1773C36.5188 78.138 36.6204 78.1179 36.7229 78.1179H63.2772C63.7091 78.1179 64.0585 78.4671 64.0585 78.899V97.6433C64.0585 98.075 63.7089 98.4242 63.2772 98.4242ZM37.504 96.8623H62.4962V79.6798H37.504V96.8623Z" fill="black"/>
<path d="M60.1532 87.49H39.847C39.7444 87.49 39.6428 87.4699 39.548 87.4306C39.4532 87.3914 39.3671 87.3339 39.2946 87.2613C39.222 87.1888 39.1645 87.1027 39.1253 87.0079C39.086 86.9131 39.0659 86.8115 39.0659 86.7089V82.0228C39.0659 81.9202 39.086 81.8186 39.1253 81.7239C39.1645 81.6291 39.222 81.543 39.2946 81.4705C39.3671 81.3979 39.4532 81.3404 39.548 81.3012C39.6428 81.262 39.7444 81.2419 39.847 81.2419H60.1532C60.2558 81.2419 60.3574 81.262 60.4521 81.3012C60.5469 81.3404 60.633 81.398 60.7055 81.4705C60.7781 81.543 60.8356 81.6291 60.8748 81.7239C60.914 81.8187 60.9342 81.9202 60.9341 82.0228V86.7089C60.9342 86.8115 60.914 86.9131 60.8748 87.0079C60.8356 87.1027 60.7781 87.1888 60.7056 87.2613C60.633 87.3339 60.5469 87.3914 60.4521 87.4306C60.3574 87.4699 60.2558 87.49 60.1532 87.49ZM40.628 85.9279H59.3724V82.8039H40.628V85.9279ZM48.438 95.3001H39.847C39.7444 95.3002 39.6428 95.28 39.548 95.2408C39.4532 95.2016 39.3671 95.144 39.2946 95.0715C39.222 94.999 39.1645 94.9128 39.1253 94.818C39.086 94.7233 39.0659 94.6217 39.0659 94.5191V89.8332C39.0659 89.7306 39.086 89.629 39.1253 89.5342C39.1645 89.4394 39.222 89.3533 39.2946 89.2808C39.3671 89.2082 39.4532 89.1507 39.548 89.1114C39.6428 89.0722 39.7444 89.052 39.847 89.0521H48.438C48.5406 89.052 48.6422 89.0722 48.7369 89.1114C48.8317 89.1507 48.9179 89.2082 48.9904 89.2808C49.0629 89.3533 49.1205 89.4394 49.1597 89.5342C49.1989 89.629 49.2191 89.7306 49.219 89.8332V94.5191C49.2191 94.6217 49.1989 94.7233 49.1597 94.818C49.1205 94.9128 49.0629 94.999 48.9904 95.0715C48.9179 95.144 48.8317 95.2016 48.7369 95.2408C48.6422 95.28 48.5406 95.3002 48.438 95.3001ZM40.628 93.738H47.6569V90.614H40.628V93.738ZM60.1532 90.614H51.5622C51.1304 90.614 50.781 90.2646 50.781 89.833C50.781 89.4013 51.1304 89.0519 51.5622 89.0519H60.1532C60.5851 89.0519 60.9341 89.4013 60.9341 89.833C60.9341 90.2646 60.5851 90.614 60.1532 90.614Z" fill="black"/>
<path d="M60.153 93.7381H51.562C51.1302 93.7381 50.7808 93.3887 50.7808 92.9571C50.7808 92.5254 51.1302 92.176 51.562 92.176H60.153C60.5849 92.176 60.9339 92.5254 60.9339 92.9571C60.9339 93.3887 60.5849 93.7381 60.153 93.7381Z" fill="black"/>
<path d="M56.2479 10.9501H45.3138C45.2112 10.9502 45.1096 10.93 45.0148 10.8908C44.92 10.8516 44.8339 10.794 44.7614 10.7215C44.6888 10.649 44.6313 10.5628 44.5921 10.468C44.5528 10.3733 44.5327 10.2717 44.5327 10.1691V5.48315C44.5327 5.21225 44.6731 4.96069 44.9034 4.81889C45.0167 4.74911 45.1459 4.70933 45.2788 4.70332C45.4116 4.6973 45.5439 4.72525 45.663 4.78452L48.0823 5.99409L50.0302 2.01577C50.0941 1.8854 50.193 1.7754 50.3158 1.69809C50.4387 1.62078 50.5807 1.57922 50.7259 1.57807C50.9841 1.55366 51.2931 1.74057 51.4274 2.00366L53.4667 6.00034L55.8981 4.78452C56.0172 4.72468 56.1495 4.69642 56.2826 4.70244C56.4157 4.70846 56.545 4.74856 56.6581 4.81889C56.7713 4.88886 56.8648 4.98662 56.9296 5.10288C56.9944 5.21914 57.0284 5.35004 57.0284 5.48315V10.1691C57.0286 10.2717 57.0085 10.3732 56.9693 10.468C56.9302 10.5628 56.8727 10.649 56.8002 10.7215C56.7277 10.7941 56.6416 10.8516 56.5468 10.8908C56.4521 10.9301 56.3505 10.9502 56.2479 10.9501ZM46.0948 9.38803H55.4671V6.74682L53.4731 7.7437C53.2889 7.83558 53.0758 7.85108 52.8802 7.78683C52.6845 7.72259 52.5221 7.58378 52.4282 7.40053L50.7464 4.10561L49.1388 7.38823C49.0934 7.48089 49.0302 7.56365 48.9527 7.63173C48.8752 7.69981 48.7849 7.75187 48.6872 7.78491C48.5896 7.81842 48.4863 7.83205 48.3833 7.82497C48.2804 7.81789 48.1799 7.79025 48.0878 7.7437L46.0948 6.74682V9.38803Z" fill="black"/>
<path d="M50.7809 68.7459C50.6783 68.7459 50.5767 68.7257 50.482 68.6864C50.3872 68.6472 50.3011 68.5897 50.2286 68.5171C50.1561 68.4446 50.0986 68.3585 50.0593 68.2637C50.0201 68.1689 49.9999 68.0674 50 67.9648V57.0308C49.9999 56.9282 50.0201 56.8267 50.0593 56.7319C50.0986 56.6371 50.1561 56.551 50.2286 56.4785C50.3011 56.4059 50.3872 56.3484 50.482 56.3092C50.5767 56.2699 50.6783 56.2497 50.7809 56.2498C51.2127 56.2498 51.5621 56.5992 51.5621 57.0308V67.9648C51.5621 68.0674 51.5419 68.169 51.5027 68.2638C51.4634 68.3586 51.4059 68.4447 51.3333 68.5172C51.2608 68.5898 51.1746 68.6473 51.0798 68.6865C50.985 68.7257 50.8834 68.7459 50.7809 68.7459Z" fill="black"/>
<path d="M50.7806 68.7459C50.6261 68.746 50.4751 68.7003 50.3466 68.6145C50.2181 68.5287 50.118 68.4066 50.0589 68.2639C49.9998 68.1211 49.9844 67.9641 50.0146 67.8125C50.0448 67.661 50.1193 67.5219 50.2287 67.4127L51.7908 65.8506C51.9373 65.7042 52.1359 65.6219 52.343 65.6219C52.5501 65.622 52.7488 65.7043 52.8952 65.8507C53.0416 65.9972 53.1239 66.1958 53.1239 66.4029C53.1239 66.6101 53.0416 66.8087 52.8951 66.9551L51.333 68.517C51.2605 68.5897 51.1744 68.6473 51.0797 68.6866C50.9849 68.7259 50.8832 68.746 50.7806 68.7459Z" fill="black"/>
<path d="M50.7808 68.7459C50.6783 68.746 50.5767 68.7258 50.482 68.6865C50.3873 68.6473 50.3013 68.5897 50.2289 68.517L48.6668 66.9551C48.5203 66.8087 48.438 66.6101 48.438 66.4029C48.438 66.1958 48.5202 65.9972 48.6667 65.8507C48.8131 65.7043 49.0117 65.622 49.2188 65.6219C49.426 65.6219 49.6246 65.7042 49.7711 65.8506L51.3332 67.4127C51.4425 67.5219 51.5171 67.6611 51.5473 67.8126C51.5775 67.9642 51.5621 68.1213 51.5029 68.2641C51.4438 68.4068 51.3436 68.5289 51.215 68.6146C51.0865 68.7004 50.9354 68.7461 50.7808 68.7459Z" fill="black"/>
<path d="M16.4166 64.0598C16.2621 64.0599 16.111 64.0142 15.9825 63.9284C15.8539 63.8426 15.7538 63.7206 15.6947 63.5778C15.6355 63.4351 15.6201 63.278 15.6503 63.1264C15.6806 62.9749 15.7551 62.8357 15.8644 62.7266L23.6746 54.9164C23.7471 54.8439 23.8332 54.7863 23.9279 54.7471C24.0226 54.7078 24.1242 54.6876 24.2267 54.6876C24.3293 54.6876 24.4308 54.7078 24.5256 54.7471C24.6203 54.7863 24.7064 54.8439 24.7789 54.9164C24.8514 54.9889 24.909 55.075 24.9482 55.1697C24.9875 55.2645 25.0077 55.366 25.0077 55.4686C25.0077 55.5711 24.9875 55.6727 24.9482 55.7674C24.909 55.8621 24.8514 55.9482 24.7789 56.0207L16.9687 63.8309C16.8963 63.9035 16.8103 63.9612 16.7155 64.0005C16.6208 64.0398 16.5192 64.0599 16.4166 64.0598Z" fill="black"/>
<path d="M18.6256 64.0598H16.4168C15.9852 64.0598 15.6357 63.7104 15.6357 63.2787C15.6357 62.8471 15.985 62.4977 16.4168 62.4977H18.6256C19.0572 62.4977 19.4066 62.8471 19.4066 63.2787C19.4066 63.7104 19.0572 64.0598 18.6256 64.0598Z" fill="black"/>
<path d="M16.4168 64.0597C16.3142 64.0598 16.2126 64.0396 16.1178 64.0004C16.0231 63.9611 15.9369 63.9036 15.8644 63.8311C15.7919 63.7585 15.7343 63.6724 15.6951 63.5776C15.6559 63.4828 15.6357 63.3812 15.6357 63.2787V61.0697C15.6357 60.638 15.985 60.2888 16.4168 60.2888C16.8486 60.2888 17.1979 60.638 17.1979 61.0697V63.2787C17.1979 63.3812 17.1777 63.4828 17.1384 63.5776C17.0992 63.6724 17.0417 63.7585 16.9691 63.831C16.8966 63.9035 16.8105 63.9611 16.7157 64.0003C16.6209 64.0396 16.5194 64.0597 16.4168 64.0597Z" fill="black"/>
<path d="M85.1456 64.0598C85.043 64.0599 84.9414 64.0397 84.8466 64.0004C84.7518 63.9611 84.6657 63.9035 84.5932 63.8309L76.7835 56.0207C76.7109 55.9482 76.6534 55.8621 76.6141 55.7674C76.5749 55.6727 76.5547 55.5711 76.5547 55.4686C76.5547 55.366 76.5749 55.2645 76.6141 55.1697C76.6534 55.075 76.7109 54.9889 76.7835 54.9164C76.856 54.8439 76.942 54.7863 77.0368 54.7471C77.1315 54.7078 77.2331 54.6876 77.3356 54.6876C77.4382 54.6876 77.5397 54.7078 77.6345 54.7471C77.7292 54.7863 77.8153 54.8439 77.8878 54.9164L85.6975 62.7266C85.7701 62.7991 85.8276 62.8851 85.8669 62.9799C85.9061 63.0746 85.9263 63.1762 85.9263 63.2787C85.9263 63.3813 85.9061 63.4828 85.8669 63.5775C85.8276 63.6723 85.7701 63.7584 85.6975 63.8309C85.6252 63.9036 85.5392 63.9613 85.4445 64.0006C85.3497 64.0399 85.2481 64.06 85.1456 64.0598Z" fill="black"/>
<path d="M85.1453 64.0598H82.9365C82.5047 64.0598 82.1553 63.7104 82.1553 63.2787C82.1553 62.8471 82.5047 62.4977 82.9365 62.4977H85.1453C85.5768 62.4977 85.9262 62.8471 85.9262 63.2787C85.9262 63.7104 85.5768 64.0598 85.1453 64.0598Z" fill="black"/>
<path d="M85.1455 64.0597C84.7137 64.0597 84.3643 63.7103 84.3643 63.2787V61.0697C84.3642 60.9671 84.3844 60.8655 84.4237 60.7707C84.4629 60.676 84.5205 60.5899 84.593 60.5173C84.6656 60.4448 84.7517 60.3873 84.8465 60.3481C84.9413 60.3089 85.0429 60.2887 85.1455 60.2888C85.2481 60.2888 85.3496 60.3089 85.4444 60.3482C85.5392 60.3874 85.6253 60.4449 85.6978 60.5174C85.7703 60.5899 85.8278 60.676 85.867 60.7708C85.9063 60.8656 85.9264 60.9671 85.9264 61.0697V63.2787C85.9264 63.3812 85.9063 63.4828 85.867 63.5776C85.8278 63.6723 85.7703 63.7585 85.6978 63.831C85.6253 63.9035 85.5392 63.9611 85.4444 64.0003C85.3496 64.0396 85.2481 64.0597 85.1455 64.0597Z" fill="black"/>
</svg>
