<svg width="24" height="24" viewBox="0 0 24 24" fill="none" xmlns="http://www.w3.org/2000/svg">
<path d="M9.06667 17.7C8.8 17.4333 8.672 17.1111 8.68267 16.7333C8.69334 16.3556 8.83245 16.0333 9.1 15.7667L11.5333 13.3333H1.33334C0.95556 13.3333 0.638671 13.2053 0.382671 12.9493C0.126671 12.6933 -0.000884275 12.3769 4.61361e-06 12C4.61361e-06 11.6222 0.128005 11.3053 0.384005 11.0493C0.640005 10.7933 0.956449 10.6658 1.33334 10.6667H11.5333L9.06667 8.2C8.8 7.93333 8.66667 7.61645 8.66667 7.24933C8.66667 6.88222 8.8 6.56578 9.06667 6.3C9.33333 6.03333 9.65022 5.9 10.0173 5.9C10.3844 5.9 10.7009 6.03333 10.9667 6.3L15.7333 11.0667C15.8667 11.2 15.9613 11.3444 16.0173 11.5C16.0733 11.6556 16.1009 11.8222 16.1 12C16.1 12.1778 16.0724 12.3444 16.0173 12.5C15.9622 12.6556 15.8676 12.8 15.7333 12.9333L10.9333 17.7333C10.6889 17.9778 10.3836 18.1 10.0173 18.1C9.65111 18.1 9.33422 17.9667 9.06667 17.7ZM2.66667 24C1.93334 24 1.30534 23.7387 0.782671 23.216C0.260004 22.6933 -0.000884275 22.0658 4.61361e-06 21.3333V17.3333C4.61361e-06 16.9556 0.128005 16.6387 0.384005 16.3827C0.640005 16.1267 0.956449 15.9991 1.33334 16C1.71112 16 2.028 16.128 2.284 16.384C2.54 16.64 2.66756 16.9564 2.66667 17.3333V21.3333H21.3333V2.66667H2.66667V6.66667C2.66667 7.04445 2.53867 7.36133 2.28267 7.61733C2.02667 7.87333 1.71023 8.00089 1.33334 8C0.95556 8 0.638671 7.872 0.382671 7.616C0.126671 7.36 -0.000884275 7.04356 4.61361e-06 6.66667V2.66667C4.61361e-06 1.93334 0.261338 1.30534 0.784004 0.782669C1.30667 0.260002 1.93423 -0.000886625 2.66667 2.26372e-06H21.3333C22.0667 2.26372e-06 22.6947 0.261336 23.2173 0.784002C23.74 1.30667 24.0009 1.93422 24 2.66667V21.3333C24 22.0667 23.7387 22.6947 23.216 23.2173C22.6933 23.74 22.0658 24.0009 21.3333 24H2.66667Z" fill="#939393"/>
</svg>
