<svg width="146" height="59" viewBox="0 0 146 59" fill="none" xmlns="http://www.w3.org/2000/svg">
<rect x="38.1765" y="11.5686" width="9.2549" height="46.2745" rx="3.47059" fill="#FFC56D"/>
<rect x="24.2939" width="9.2549" height="57.8431" rx="3.47059" fill="#FFC56D"/>
<rect width="9.2549" height="46.2745" rx="3.47059" transform="matrix(0.965926 0.258819 -0.265599 0.964083 12.2905 11.5686)" fill="#FFC56D"/>
<path d="M62.6807 31.3841V29.1471C62.9368 29.3731 63.2418 29.5765 63.5958 29.7572C63.9573 29.938 64.3339 30.0924 64.7256 30.2204C65.1247 30.3409 65.5239 30.4351 65.9231 30.5028C66.3223 30.5706 66.6913 30.6045 67.0302 30.6045C68.1977 30.6045 69.0676 30.3899 69.64 29.9606C70.2199 29.5237 70.5099 28.8986 70.5099 28.0852C70.5099 27.6483 70.412 27.268 70.2161 26.9441C70.0278 26.6203 69.7642 26.3265 69.4253 26.0629C69.0864 25.7918 68.6834 25.5357 68.2165 25.2947C67.7571 25.0462 67.26 24.7863 66.7252 24.5152C66.1603 24.229 65.6331 23.939 65.1436 23.6453C64.654 23.3515 64.2285 23.0277 63.867 22.6737C63.5054 22.3197 63.2192 21.9205 63.0083 21.4762C62.805 21.0243 62.7033 20.497 62.7033 19.8945C62.7033 19.1564 62.8652 18.5162 63.1891 17.9739C63.513 17.4241 63.9385 16.9722 64.4657 16.6182C64.9929 16.2642 65.5917 16.0006 66.262 15.8274C66.9399 15.6542 67.629 15.5676 68.3295 15.5676C69.9262 15.5676 71.0898 15.7596 71.8204 16.1437V18.279C70.8639 17.6162 69.6362 17.2848 68.1374 17.2848C67.7232 17.2848 67.3089 17.33 66.8947 17.4204C66.4804 17.5032 66.1114 17.6425 65.7875 17.8384C65.4637 18.0342 65.2001 18.2865 64.9967 18.5953C64.7933 18.9041 64.6917 19.2807 64.6917 19.725C64.6917 20.1393 64.767 20.497 64.9176 20.7983C65.0758 21.0996 65.3055 21.3745 65.6068 21.623C65.908 21.8716 66.2733 22.1126 66.7026 22.3461C67.1395 22.5795 67.6403 22.8356 68.2052 23.1143C68.7851 23.4005 69.3349 23.7018 69.8546 24.0181C70.3743 24.3344 70.83 24.6846 71.2216 25.0688C71.6133 25.4529 71.9221 25.8784 72.148 26.3454C72.3815 26.8123 72.4982 27.3471 72.4982 27.9496C72.4982 28.748 72.3401 29.4258 72.0237 29.9832C71.7149 30.533 71.2932 30.9811 70.7584 31.3276C70.2312 31.674 69.6211 31.9226 68.9282 32.0732C68.2353 32.2314 67.5047 32.3104 66.7365 32.3104C66.4804 32.3104 66.1641 32.2879 65.7875 32.2427C65.4109 32.205 65.0268 32.1447 64.6352 32.0619C64.2435 31.9866 63.8707 31.8924 63.5167 31.7795C63.1703 31.659 62.8916 31.5272 62.6807 31.3841ZM88.2695 32.0393H86.1682L84.451 27.4977H77.5821L75.9666 32.0393H73.8539L80.0676 15.8387H82.0333L88.2695 32.0393ZM83.8296 25.7918L81.2877 18.889C81.2048 18.6631 81.122 18.3016 81.0391 17.8045H80.9939C80.9186 18.2639 80.832 18.6254 80.7341 18.889L78.2148 25.7918H83.8296ZM103.724 32.0393H101.397L93.0597 19.1263C92.8488 18.8024 92.6755 18.4635 92.54 18.1095H92.4722C92.5324 18.456 92.5626 19.1978 92.5626 20.3351V32.0393H90.6646V15.8387H93.1274L101.239 28.5484C101.578 29.0756 101.796 29.4371 101.894 29.6329H101.939C101.864 29.166 101.827 28.3714 101.827 27.2492V15.8387H103.724V32.0393ZM62.6807 52.3841V50.1471C62.9368 50.3731 63.2418 50.5765 63.5958 50.7572C63.9573 50.938 64.3339 51.0924 64.7256 51.2204C65.1247 51.3409 65.5239 51.4351 65.9231 51.5028C66.3223 51.5706 66.6913 51.6045 67.0302 51.6045C68.1977 51.6045 69.0676 51.3899 69.64 50.9606C70.2199 50.5237 70.5099 49.8986 70.5099 49.0852C70.5099 48.6483 70.412 48.268 70.2161 47.9441C70.0278 47.6203 69.7642 47.3265 69.4253 47.0629C69.0864 46.7918 68.6834 46.5357 68.2165 46.2947C67.7571 46.0462 67.26 45.7863 66.7252 45.5152C66.1603 45.229 65.6331 44.939 65.1436 44.6453C64.654 44.3515 64.2285 44.0277 63.867 43.6737C63.5054 43.3197 63.2192 42.9205 63.0083 42.4762C62.805 42.0243 62.7033 41.497 62.7033 40.8945C62.7033 40.1564 62.8652 39.5162 63.1891 38.9739C63.513 38.4241 63.9385 37.9722 64.4657 37.6182C64.9929 37.2642 65.5917 37.0006 66.262 36.8274C66.9399 36.6542 67.629 36.5676 68.3295 36.5676C69.9262 36.5676 71.0898 36.7596 71.8204 37.1437V39.279C70.8639 38.6162 69.6362 38.2848 68.1374 38.2848C67.7232 38.2848 67.3089 38.33 66.8947 38.4204C66.4804 38.5032 66.1114 38.6425 65.7875 38.8384C65.4637 39.0342 65.2001 39.2865 64.9967 39.5953C64.7933 39.9041 64.6917 40.2807 64.6917 40.725C64.6917 41.1393 64.767 41.497 64.9176 41.7983C65.0758 42.0996 65.3055 42.3745 65.6068 42.623C65.908 42.8716 66.2733 43.1126 66.7026 43.3461C67.1395 43.5795 67.6403 43.8356 68.2052 44.1143C68.7851 44.4005 69.3349 44.7018 69.8546 45.0181C70.3743 45.3344 70.83 45.6846 71.2216 46.0688C71.6133 46.4529 71.9221 46.8784 72.148 47.3454C72.3815 47.8123 72.4982 48.3471 72.4982 48.9496C72.4982 49.748 72.3401 50.4258 72.0237 50.9832C71.7149 51.533 71.2932 51.9811 70.7584 52.3276C70.2312 52.674 69.6211 52.9226 68.9282 53.0732C68.2353 53.2314 67.5047 53.3104 66.7365 53.3104C66.4804 53.3104 66.1641 53.2879 65.7875 53.2427C65.4109 53.205 65.0268 53.1447 64.6352 53.0619C64.2435 52.9866 63.8707 52.8924 63.5167 52.7795C63.1703 52.659 62.8916 52.5272 62.6807 52.3841ZM84.3154 53.0393H75.7293V36.8387H83.9539V38.5559H77.6273V43.9448H83.4794V45.6507H77.6273V51.3221H84.3154V53.0393ZM99.9737 53.0393H97.8724L96.1552 48.4977H89.2863L87.6708 53.0393H85.5581L91.7717 36.8387H93.7375L99.9737 53.0393ZM95.5338 46.7918L92.9919 39.889C92.909 39.6631 92.8262 39.3016 92.7433 38.8045H92.6981C92.6228 39.2639 92.5362 39.6254 92.4383 39.889L89.919 46.7918H95.5338ZM113.983 53.0393H111.723L109.012 48.4977C108.763 48.0759 108.522 47.7182 108.289 47.4245C108.055 47.1232 107.814 46.8784 107.566 46.6901C107.325 46.5018 107.061 46.3663 106.775 46.2834C106.496 46.193 106.18 46.1478 105.826 46.1478H104.267V53.0393H102.369V36.8387H107.204C107.912 36.8387 108.564 36.9291 109.159 37.1098C109.761 37.2831 110.281 37.5505 110.718 37.912C111.162 38.2735 111.508 38.7254 111.757 39.2677C112.006 39.8024 112.13 40.4313 112.13 41.1543C112.13 41.7192 112.043 42.2389 111.87 42.7134C111.704 43.1804 111.463 43.5984 111.147 43.9674C110.838 44.3365 110.462 44.6528 110.017 44.9164C109.58 45.1725 109.087 45.3721 108.537 45.5152V45.5604C108.808 45.6809 109.042 45.8202 109.238 45.9784C109.441 46.129 109.633 46.3098 109.814 46.5207C109.995 46.7315 110.172 46.9726 110.345 47.2437C110.526 47.5073 110.725 47.8161 110.944 48.1701L113.983 53.0393ZM104.267 38.5559V44.4306H106.843C107.317 44.4306 107.754 44.3591 108.153 44.216C108.56 44.0729 108.91 43.8695 109.204 43.6059C109.498 43.3348 109.727 43.0071 109.893 42.623C110.059 42.2314 110.141 41.7945 110.141 41.3125C110.141 40.4464 109.859 39.7723 109.294 39.2903C108.737 38.8007 107.927 38.5559 106.865 38.5559H104.267ZM127.246 52.3615C126.048 52.9941 124.557 53.3104 122.772 53.3104C120.467 53.3104 118.622 52.5686 117.236 51.0848C115.85 49.6011 115.158 47.6542 115.158 45.244C115.158 42.6531 115.937 40.5593 117.496 38.9626C119.055 37.3659 121.032 36.5676 123.427 36.5676C124.964 36.5676 126.237 36.7898 127.246 37.2341V39.2564C126.086 38.6086 124.806 38.2848 123.405 38.2848C121.544 38.2848 120.034 38.9061 118.874 40.1489C117.722 41.3916 117.146 43.0523 117.146 45.1311C117.146 47.1044 117.684 48.6785 118.761 49.8534C119.846 51.0208 121.266 51.6045 123.021 51.6045C124.647 51.6045 126.056 51.243 127.246 50.52V52.3615ZM142.723 53.0393H140.825V45.6507H132.443V53.0393H130.545V36.8387H132.443V43.9448H140.825V36.8387H142.723V53.0393Z" fill="black"/>
</svg>
