<svg width="81" height="36" viewBox="0 0 81 36" fill="none" xmlns="http://www.w3.org/2000/svg">
<rect x="25" y="5" width="6" height="30" rx="2" fill="#FFC56D"/>
<rect x="16" width="6" height="35" rx="2" fill="#FFC56D"/>
<rect width="6" height="29.6157" rx="2" transform="matrix(0.965926 0.258819 -0.265599 0.964083 7.86597 5)" fill="#FFC56D"/>
<path d="M36.709 15.6602V14.5C36.8418 14.6172 37 14.7227 37.1836 14.8164C37.3711 14.9102 37.5664 14.9902 37.7695 15.0566C37.9766 15.1191 38.1836 15.168 38.3906 15.2031C38.5977 15.2383 38.7891 15.2559 38.9648 15.2559C39.5703 15.2559 40.0215 15.1445 40.3184 14.9219C40.6191 14.6953 40.7695 14.3711 40.7695 13.9492C40.7695 13.7227 40.7188 13.5254 40.6172 13.3574C40.5195 13.1895 40.3828 13.0371 40.207 12.9004C40.0312 12.7598 39.8223 12.627 39.5801 12.502C39.3418 12.373 39.084 12.2383 38.8066 12.0977C38.5137 11.9492 38.2402 11.7988 37.9863 11.6465C37.7324 11.4941 37.5117 11.3262 37.3242 11.1426C37.1367 10.959 36.9883 10.752 36.8789 10.5215C36.7734 10.2871 36.7207 10.0137 36.7207 9.70117C36.7207 9.31836 36.8047 8.98633 36.9727 8.70508C37.1406 8.41992 37.3613 8.18555 37.6348 8.00195C37.9082 7.81836 38.2188 7.68164 38.5664 7.5918C38.918 7.50195 39.2754 7.45703 39.6387 7.45703C40.4668 7.45703 41.0703 7.55664 41.4492 7.75586V8.86328C40.9531 8.51953 40.3164 8.34766 39.5391 8.34766C39.3242 8.34766 39.1094 8.37109 38.8945 8.41797C38.6797 8.46094 38.4883 8.5332 38.3203 8.63477C38.1523 8.73633 38.0156 8.86719 37.9102 9.02734C37.8047 9.1875 37.752 9.38281 37.752 9.61328C37.752 9.82812 37.791 10.0137 37.8691 10.1699C37.9512 10.3262 38.0703 10.4688 38.2266 10.5977C38.3828 10.7266 38.5723 10.8516 38.7949 10.9727C39.0215 11.0938 39.2812 11.2266 39.5742 11.3711C39.875 11.5195 40.1602 11.6758 40.4297 11.8398C40.6992 12.0039 40.9355 12.1855 41.1387 12.3848C41.3418 12.584 41.502 12.8047 41.6191 13.0469C41.7402 13.2891 41.8008 13.5664 41.8008 13.8789C41.8008 14.293 41.7188 14.6445 41.5547 14.9336C41.3945 15.2188 41.1758 15.4512 40.8984 15.6309C40.625 15.8105 40.3086 15.9395 39.9492 16.0176C39.5898 16.0996 39.2109 16.1406 38.8125 16.1406C38.6797 16.1406 38.5156 16.1289 38.3203 16.1055C38.125 16.0859 37.9258 16.0547 37.7227 16.0117C37.5195 15.9727 37.3262 15.9238 37.1426 15.8652C36.9629 15.8027 36.8184 15.7344 36.709 15.6602ZM49.9805 16H48.8906L48 13.6445H44.4375L43.5996 16H42.5039L45.7266 7.59766H46.7461L49.9805 16ZM47.6777 12.7598L46.3594 9.17969C46.3164 9.0625 46.2734 8.875 46.2305 8.61719H46.207C46.168 8.85547 46.123 9.04297 46.0723 9.17969L44.7656 12.7598H47.6777ZM57.9961 16H56.7891L52.4648 9.30273C52.3555 9.13477 52.2656 8.95898 52.1953 8.77539H52.1602C52.1914 8.95508 52.207 9.33984 52.207 9.92969V16H51.2227V7.59766H52.5L56.707 14.1895C56.8828 14.4629 56.9961 14.6504 57.0469 14.752H57.0703C57.0312 14.5098 57.0117 14.0977 57.0117 13.5156V7.59766H57.9961V16ZM36.709 30.6602V29.5C36.8418 29.6172 37 29.7227 37.1836 29.8164C37.3711 29.9102 37.5664 29.9902 37.7695 30.0566C37.9766 30.1191 38.1836 30.168 38.3906 30.2031C38.5977 30.2383 38.7891 30.2559 38.9648 30.2559C39.5703 30.2559 40.0215 30.1445 40.3184 29.9219C40.6191 29.6953 40.7695 29.3711 40.7695 28.9492C40.7695 28.7227 40.7188 28.5254 40.6172 28.3574C40.5195 28.1895 40.3828 28.0371 40.207 27.9004C40.0312 27.7598 39.8223 27.627 39.5801 27.502C39.3418 27.373 39.084 27.2383 38.8066 27.0977C38.5137 26.9492 38.2402 26.7988 37.9863 26.6465C37.7324 26.4941 37.5117 26.3262 37.3242 26.1426C37.1367 25.959 36.9883 25.752 36.8789 25.5215C36.7734 25.2871 36.7207 25.0137 36.7207 24.7012C36.7207 24.3184 36.8047 23.9863 36.9727 23.7051C37.1406 23.4199 37.3613 23.1855 37.6348 23.002C37.9082 22.8184 38.2188 22.6816 38.5664 22.5918C38.918 22.502 39.2754 22.457 39.6387 22.457C40.4668 22.457 41.0703 22.5566 41.4492 22.7559V23.8633C40.9531 23.5195 40.3164 23.3477 39.5391 23.3477C39.3242 23.3477 39.1094 23.3711 38.8945 23.418C38.6797 23.4609 38.4883 23.5332 38.3203 23.6348C38.1523 23.7363 38.0156 23.8672 37.9102 24.0273C37.8047 24.1875 37.752 24.3828 37.752 24.6133C37.752 24.8281 37.791 25.0137 37.8691 25.1699C37.9512 25.3262 38.0703 25.4688 38.2266 25.5977C38.3828 25.7266 38.5723 25.8516 38.7949 25.9727C39.0215 26.0938 39.2812 26.2266 39.5742 26.3711C39.875 26.5195 40.1602 26.6758 40.4297 26.8398C40.6992 27.0039 40.9355 27.1855 41.1387 27.3848C41.3418 27.584 41.502 27.8047 41.6191 28.0469C41.7402 28.2891 41.8008 28.5664 41.8008 28.8789C41.8008 29.293 41.7188 29.6445 41.5547 29.9336C41.3945 30.2188 41.1758 30.4512 40.8984 30.6309C40.625 30.8105 40.3086 30.9395 39.9492 31.0176C39.5898 31.0996 39.2109 31.1406 38.8125 31.1406C38.6797 31.1406 38.5156 31.1289 38.3203 31.1055C38.125 31.0859 37.9258 31.0547 37.7227 31.0117C37.5195 30.9727 37.3262 30.9238 37.1426 30.8652C36.9629 30.8027 36.8184 30.7344 36.709 30.6602ZM47.9297 31H43.4766V22.5977H47.7422V23.4883H44.4609V26.2832H47.4961V27.168H44.4609V30.1094H47.9297V31ZM56.0508 31H54.9609L54.0703 28.6445H50.5078L49.6699 31H48.5742L51.7969 22.5977H52.8164L56.0508 31ZM53.748 27.7598L52.4297 24.1797C52.3867 24.0625 52.3438 23.875 52.3008 23.6172H52.2773C52.2383 23.8555 52.1934 24.043 52.1426 24.1797L50.8359 27.7598H53.748ZM63.3164 31H62.1445L60.7383 28.6445C60.6094 28.4258 60.4844 28.2402 60.3633 28.0879C60.2422 27.9316 60.1172 27.8047 59.9883 27.707C59.8633 27.6094 59.7266 27.5391 59.5781 27.4961C59.4336 27.4492 59.2695 27.4258 59.0859 27.4258H58.2773V31H57.293V22.5977H59.8008C60.168 22.5977 60.5059 22.6445 60.8145 22.7383C61.127 22.8281 61.3965 22.9668 61.623 23.1543C61.8535 23.3418 62.0332 23.5762 62.1621 23.8574C62.291 24.1348 62.3555 24.4609 62.3555 24.8359C62.3555 25.1289 62.3105 25.3984 62.2207 25.6445C62.1348 25.8867 62.0098 26.1035 61.8457 26.2949C61.6855 26.4863 61.4902 26.6504 61.2598 26.7871C61.0332 26.9199 60.7773 27.0234 60.4922 27.0977V27.1211C60.6328 27.1836 60.7539 27.2559 60.8555 27.3379C60.9609 27.416 61.0605 27.5098 61.1543 27.6191C61.248 27.7285 61.3398 27.8535 61.4297 27.9941C61.5234 28.1309 61.627 28.291 61.7402 28.4746L63.3164 31ZM58.2773 23.4883V26.5352H59.6133C59.8594 26.5352 60.0859 26.498 60.293 26.4238C60.5039 26.3496 60.6855 26.2441 60.8379 26.1074C60.9902 25.9668 61.1094 25.7969 61.1953 25.5977C61.2812 25.3945 61.3242 25.168 61.3242 24.918C61.3242 24.4688 61.1777 24.1191 60.8848 23.8691C60.5957 23.6152 60.1758 23.4883 59.625 23.4883H58.2773ZM70.1953 30.6484C69.5742 30.9766 68.8008 31.1406 67.875 31.1406C66.6797 31.1406 65.7227 30.7559 65.0039 29.9863C64.2852 29.2168 63.9258 28.207 63.9258 26.957C63.9258 25.6133 64.3301 24.5273 65.1387 23.6992C65.9473 22.8711 66.9727 22.457 68.2148 22.457C69.0117 22.457 69.6719 22.5723 70.1953 22.8027V23.8516C69.5938 23.5156 68.9297 23.3477 68.2031 23.3477C67.2383 23.3477 66.4551 23.6699 65.8535 24.3145C65.2559 24.959 64.957 25.8203 64.957 26.8984C64.957 27.9219 65.2363 28.7383 65.7949 29.3477C66.3574 29.9531 67.0938 30.2559 68.0039 30.2559C68.8477 30.2559 69.5781 30.0684 70.1953 29.6934V30.6484ZM78.2227 31H77.2383V27.168H72.8906V31H71.9062V22.5977H72.8906V26.2832H77.2383V22.5977H78.2227V31Z" fill="black"/>
</svg>
