<svg width="127" height="51" viewBox="0 0 127 51" fill="none" xmlns="http://www.w3.org/2000/svg">
<rect x="33" y="10" width="8" height="40" rx="3" fill="#FFC56D"/>
<rect x="21" width="8" height="50" rx="3" fill="#FFC56D"/>
<rect width="8" height="40" rx="3" transform="matrix(0.965926 0.258819 -0.265599 0.964083 10.624 10)" fill="#FFC56D"/>
<path d="M54.1816 27.4336V25.5C54.403 25.6953 54.6667 25.8711 54.9727 26.0273C55.2852 26.1836 55.6107 26.3171 55.9492 26.4277C56.2943 26.5319 56.6393 26.6133 56.9844 26.6719C57.3294 26.7305 57.6484 26.7598 57.9414 26.7598C58.9505 26.7598 59.7025 26.5742 60.1973 26.2031C60.6986 25.8255 60.9492 25.2852 60.9492 24.582C60.9492 24.2044 60.8646 23.8757 60.6953 23.5957C60.5326 23.3158 60.3047 23.0618 60.0117 22.834C59.7188 22.5996 59.3704 22.3783 58.9668 22.1699C58.5697 21.9551 58.14 21.7305 57.6777 21.4961C57.1895 21.2487 56.7337 20.998 56.3105 20.7441C55.8874 20.4902 55.5195 20.2103 55.207 19.9043C54.8945 19.5983 54.6471 19.2533 54.4648 18.8691C54.2891 18.4785 54.2012 18.0228 54.2012 17.502C54.2012 16.8639 54.3411 16.3105 54.6211 15.8418C54.901 15.3665 55.2689 14.9759 55.7246 14.6699C56.1803 14.3639 56.6979 14.1361 57.2773 13.9863C57.8633 13.8366 58.459 13.7617 59.0645 13.7617C60.4447 13.7617 61.4505 13.9277 62.082 14.2598V16.1055C61.2552 15.5326 60.194 15.2461 58.8984 15.2461C58.5404 15.2461 58.1823 15.2852 57.8242 15.3633C57.4661 15.4349 57.1471 15.5553 56.8672 15.7246C56.5872 15.8939 56.3594 16.112 56.1836 16.3789C56.0078 16.6458 55.9199 16.9714 55.9199 17.3555C55.9199 17.7135 55.985 18.0228 56.1152 18.2832C56.252 18.5436 56.4505 18.7812 56.7109 18.9961C56.9714 19.2109 57.2871 19.4193 57.6582 19.6211C58.0358 19.8229 58.4688 20.0443 58.957 20.2852C59.4583 20.5326 59.9336 20.793 60.3828 21.0664C60.832 21.3398 61.2259 21.6426 61.5645 21.9746C61.903 22.3066 62.1699 22.6745 62.3652 23.0781C62.5671 23.4818 62.668 23.944 62.668 24.4648C62.668 25.1549 62.5312 25.7409 62.2578 26.2227C61.9909 26.6979 61.6263 27.0853 61.1641 27.3848C60.7083 27.6842 60.181 27.8991 59.582 28.0293C58.9831 28.166 58.3516 28.2344 57.6875 28.2344C57.4661 28.2344 57.1927 28.2148 56.8672 28.1758C56.5417 28.1432 56.2096 28.0911 55.8711 28.0195C55.5326 27.9544 55.2103 27.873 54.9043 27.7754C54.6048 27.6712 54.3639 27.5573 54.1816 27.4336ZM76.3008 28H74.4844L73 24.0742H67.0625L65.666 28H63.8398L69.2109 13.9961H70.9102L76.3008 28ZM72.4629 22.5996L70.2656 16.6328C70.194 16.4375 70.1224 16.125 70.0508 15.6953H70.0117C69.9466 16.0924 69.8717 16.4049 69.7871 16.6328L67.6094 22.5996H72.4629ZM89.6602 28H87.6484L80.4414 16.8379C80.2591 16.5579 80.1094 16.265 79.9922 15.959H79.9336C79.9857 16.2585 80.0117 16.8997 80.0117 17.8828V28H78.3711V13.9961H80.5L87.5117 24.9824C87.8047 25.4382 87.9935 25.7507 88.0781 25.9199H88.1172C88.0521 25.5163 88.0195 24.8294 88.0195 23.8594V13.9961H89.6602V28ZM54.1816 45.4336V43.5C54.403 43.6953 54.6667 43.8711 54.9727 44.0273C55.2852 44.1836 55.6107 44.3171 55.9492 44.4277C56.2943 44.5319 56.6393 44.6133 56.9844 44.6719C57.3294 44.7305 57.6484 44.7598 57.9414 44.7598C58.9505 44.7598 59.7025 44.5742 60.1973 44.2031C60.6986 43.8255 60.9492 43.2852 60.9492 42.582C60.9492 42.2044 60.8646 41.8757 60.6953 41.5957C60.5326 41.3158 60.3047 41.0618 60.0117 40.834C59.7188 40.5996 59.3704 40.3783 58.9668 40.1699C58.5697 39.9551 58.14 39.7305 57.6777 39.4961C57.1895 39.2487 56.7337 38.998 56.3105 38.7441C55.8874 38.4902 55.5195 38.2103 55.207 37.9043C54.8945 37.5983 54.6471 37.2533 54.4648 36.8691C54.2891 36.4785 54.2012 36.0228 54.2012 35.502C54.2012 34.8639 54.3411 34.3105 54.6211 33.8418C54.901 33.3665 55.2689 32.9759 55.7246 32.6699C56.1803 32.3639 56.6979 32.1361 57.2773 31.9863C57.8633 31.8366 58.459 31.7617 59.0645 31.7617C60.4447 31.7617 61.4505 31.9277 62.082 32.2598V34.1055C61.2552 33.5326 60.194 33.2461 58.8984 33.2461C58.5404 33.2461 58.1823 33.2852 57.8242 33.3633C57.4661 33.4349 57.1471 33.5553 56.8672 33.7246C56.5872 33.8939 56.3594 34.112 56.1836 34.3789C56.0078 34.6458 55.9199 34.9714 55.9199 35.3555C55.9199 35.7135 55.985 36.0228 56.1152 36.2832C56.252 36.5436 56.4505 36.7812 56.7109 36.9961C56.9714 37.2109 57.2871 37.4193 57.6582 37.6211C58.0358 37.8229 58.4688 38.0443 58.957 38.2852C59.4583 38.5326 59.9336 38.793 60.3828 39.0664C60.832 39.3398 61.2259 39.6426 61.5645 39.9746C61.903 40.3066 62.1699 40.6745 62.3652 41.0781C62.5671 41.4818 62.668 41.944 62.668 42.4648C62.668 43.1549 62.5312 43.7409 62.2578 44.2227C61.9909 44.6979 61.6263 45.0853 61.1641 45.3848C60.7083 45.6842 60.181 45.8991 59.582 46.0293C58.9831 46.166 58.3516 46.2344 57.6875 46.2344C57.4661 46.2344 57.1927 46.2148 56.8672 46.1758C56.5417 46.1432 56.2096 46.0911 55.8711 46.0195C55.5326 45.9544 55.2103 45.873 54.9043 45.7754C54.6048 45.6712 54.3639 45.5573 54.1816 45.4336ZM72.8828 46H65.4609V31.9961H72.5703V33.4805H67.1016V38.1387H72.1602V39.6133H67.1016V44.5156H72.8828V46ZM86.418 46H84.6016L83.1172 42.0742H77.1797L75.7832 46H73.957L79.3281 31.9961H81.0273L86.418 46ZM82.5801 40.5996L80.3828 34.6328C80.3112 34.4375 80.2396 34.125 80.168 33.6953H80.1289C80.0638 34.0924 79.9889 34.4049 79.9043 34.6328L77.7266 40.5996H82.5801ZM98.5273 46H96.5742L94.2305 42.0742C94.0156 41.7096 93.8073 41.4004 93.6055 41.1465C93.4036 40.8861 93.1953 40.6745 92.9805 40.5117C92.7721 40.349 92.5443 40.2318 92.2969 40.1602C92.056 40.082 91.7826 40.043 91.4766 40.043H90.1289V46H88.4883V31.9961H92.668C93.2799 31.9961 93.8431 32.0742 94.3574 32.2305C94.8783 32.3802 95.3275 32.6113 95.7051 32.9238C96.0892 33.2363 96.3887 33.627 96.6035 34.0957C96.8184 34.5579 96.9258 35.1016 96.9258 35.7266C96.9258 36.2148 96.8509 36.6641 96.7012 37.0742C96.5579 37.4779 96.3496 37.8392 96.0762 38.1582C95.8092 38.4772 95.4837 38.7507 95.0996 38.9785C94.722 39.1999 94.2956 39.3724 93.8203 39.4961V39.5352C94.0547 39.6393 94.2565 39.7598 94.4258 39.8965C94.6016 40.0267 94.7676 40.1829 94.9238 40.3652C95.0801 40.5475 95.2331 40.7559 95.3828 40.9902C95.5391 41.2181 95.7116 41.485 95.9004 41.791L98.5273 46ZM90.1289 33.4805V38.5586H92.3555C92.7656 38.5586 93.1432 38.4967 93.4883 38.373C93.8398 38.2493 94.1426 38.0736 94.3965 37.8457C94.6504 37.6113 94.849 37.3281 94.9922 36.9961C95.1354 36.6576 95.207 36.2799 95.207 35.8633C95.207 35.1146 94.9629 34.5319 94.4746 34.1152C93.9928 33.6921 93.293 33.4805 92.375 33.4805H90.1289ZM109.992 45.4141C108.957 45.9609 107.668 46.2344 106.125 46.2344C104.133 46.2344 102.538 45.5931 101.34 44.3105C100.142 43.028 99.543 41.3451 99.543 39.2617C99.543 37.0221 100.217 35.2122 101.564 33.832C102.912 32.4518 104.621 31.7617 106.691 31.7617C108.02 31.7617 109.12 31.9538 109.992 32.3379V34.0859C108.99 33.526 107.883 33.2461 106.672 33.2461C105.064 33.2461 103.758 33.7832 102.756 34.8574C101.76 35.9316 101.262 37.3672 101.262 39.1641C101.262 40.8698 101.727 42.2305 102.658 43.2461C103.596 44.2552 104.823 44.7598 106.34 44.7598C107.746 44.7598 108.964 44.4473 109.992 43.8223V45.4141ZM123.371 46H121.73V39.6133H114.484V46H112.844V31.9961H114.484V38.1387H121.73V31.9961H123.371V46Z" fill="black"/>
</svg>
