<svg width="100" height="100" viewBox="0 0 100 100" fill="none" xmlns="http://www.w3.org/2000/svg">
<path fill-rule="evenodd" clip-rule="evenodd" d="M50.0004 57.333C33.698 57.333 20.3802 70.3222 19.8501 86.4978C19.832 87.0498 20.2815 87.4997 20.8337 87.4997V87.4997C21.386 87.4997 21.8319 87.05 21.8513 86.4981C22.3804 71.4271 34.8025 59.333 50.0004 59.333C65.1983 59.333 77.6204 71.4271 78.1495 86.4981C78.1689 87.05 78.6148 87.4997 79.1671 87.4997V87.4997C79.7194 87.4997 80.1688 87.0498 80.1507 86.4978C79.6206 70.3222 66.3029 57.333 50.0004 57.333Z" fill="black"/>
<path d="M49.9997 45.8333C59.1913 45.8333 66.6663 38.3583 66.6663 29.1667C66.6663 19.975 59.1913 12.5 49.9997 12.5C40.808 12.5 33.333 19.975 33.333 29.1667C33.333 38.3583 40.808 45.8333 49.9997 45.8333" stroke="black" stroke-width="2"/>
<rect x="0.5" y="0.5" width="99" height="99" rx="49.5" stroke="black"/>
</svg>
