<svg width="100" height="100" viewBox="0 0 100 100" fill="none" xmlns="http://www.w3.org/2000/svg">
<path d="M26.5642 50C18.8108 50 12.5024 43.6916 12.5024 35.9382C12.5024 28.1851 18.8108 21.8767 26.5642 21.8767C34.3173 21.8767 40.6257 28.1851 40.6257 35.9382C40.6257 43.6916 34.3173 50 26.5642 50ZM26.5642 23.439C19.6722 23.439 14.0649 29.0464 14.0649 35.9382C14.0649 42.8302 19.6722 48.4375 26.5642 48.4375C33.4562 48.4375 39.0634 42.8302 39.0634 35.9382C39.0634 29.0464 33.4562 23.439 26.5642 23.439Z" fill="black"/>
<path d="M26.5642 53.1248C18.8108 53.1248 12.5024 46.8164 12.5024 39.063C12.5024 38.6314 12.8519 38.282 13.2837 38.282C13.7155 38.282 14.0649 38.6314 14.0649 39.063C14.0649 45.955 19.6722 51.5625 26.5642 51.5625C33.4562 51.5625 39.0634 45.955 39.0634 39.063C39.0633 38.9604 39.0835 38.8588 39.1227 38.764C39.162 38.6692 39.2195 38.5831 39.2921 38.5106C39.3647 38.438 39.4508 38.3805 39.5456 38.3413C39.6404 38.3021 39.742 38.2819 39.8446 38.282C39.9472 38.2819 40.0488 38.3021 40.1436 38.3413C40.2384 38.3806 40.3245 38.4381 40.397 38.5106C40.4696 38.5832 40.5271 38.6693 40.5663 38.7641C40.6056 38.8589 40.6257 38.9605 40.6257 39.063C40.6257 46.8164 34.3173 53.1248 26.5642 53.1248Z" fill="black"/>
<path d="M13.2837 39.8444C12.8519 39.8444 12.5024 39.495 12.5024 39.0631V35.9383C12.5024 35.5067 12.8519 35.1573 13.2837 35.1573C13.7155 35.1573 14.0649 35.5067 14.0649 35.9383V39.0631C14.0649 39.495 13.7155 39.8444 13.2837 39.8444ZM39.8446 39.8444C39.4128 39.8444 39.0634 39.495 39.0634 39.0631V35.9383C39.0633 35.8357 39.0835 35.7341 39.1227 35.6393C39.162 35.5445 39.2195 35.4584 39.2921 35.3859C39.3647 35.3133 39.4508 35.2558 39.5456 35.2166C39.6404 35.1773 39.742 35.1572 39.8446 35.1573C39.9472 35.1572 40.0488 35.1774 40.1436 35.2166C40.2384 35.2559 40.3245 35.3134 40.397 35.3859C40.4696 35.4585 40.5271 35.5446 40.5663 35.6394C40.6056 35.7342 40.6257 35.8357 40.6257 35.9383V39.0631C40.6257 39.495 40.2763 39.8444 39.8446 39.8444ZM26.5642 42.1879C23.1181 42.1879 20.3146 39.3844 20.3146 35.9383C20.3146 32.4922 23.1181 29.6887 26.5642 29.6887C30.0103 29.6887 32.8138 32.4922 32.8138 35.9383C32.8138 39.3844 30.0101 42.1879 26.5642 42.1879ZM26.5642 31.2512C23.9796 31.2512 21.8769 33.3538 21.8769 35.9383C21.8769 38.5231 23.9796 40.6256 26.5642 40.6256C29.1487 40.6256 31.2513 38.5231 31.2513 35.9383C31.2513 33.3538 29.1487 31.2512 26.5642 31.2512Z" fill="black"/>
<path d="M31.8067 38.282C31.6383 38.2819 31.4745 38.2276 31.3395 38.127C31.2045 38.0264 31.1056 37.8849 31.0574 37.7236C30.4717 35.7521 28.6239 34.3759 26.5641 34.3759C24.5043 34.3759 22.6565 35.7521 22.0705 37.7236C22.0414 37.822 21.9931 37.9137 21.9285 37.9935C21.8638 38.0733 21.7841 38.1395 21.6938 38.1884C21.6035 38.2373 21.5045 38.2679 21.4024 38.2784C21.3002 38.289 21.197 38.2793 21.0987 38.25C20.9001 38.1907 20.7331 38.055 20.6344 37.8728C20.5357 37.6905 20.5134 37.4766 20.5723 37.2779C21.3543 34.6498 23.8176 32.8134 26.5641 32.8134C29.3106 32.8134 31.7739 34.6498 32.5559 37.2779C32.6148 37.4766 32.5924 37.6905 32.4937 37.8728C32.3951 38.055 32.2281 38.1907 32.0295 38.25C31.9571 38.2709 31.8821 38.2817 31.8067 38.282ZM22.6504 32.8058C22.5478 32.8059 22.4462 32.7857 22.3514 32.7465C22.2566 32.7072 22.1705 32.6496 22.0981 32.5769L16.6221 27.1009C16.4809 26.9534 16.4031 26.7564 16.4053 26.5522C16.4076 26.3479 16.4897 26.1527 16.6341 26.0083C16.7786 25.8639 16.9738 25.7818 17.178 25.7796C17.3823 25.7773 17.5792 25.8552 17.7268 25.9964L23.2028 31.4724C23.3121 31.5816 23.3866 31.7208 23.4168 31.8724C23.447 32.0239 23.4316 32.181 23.3724 32.3238C23.3133 32.4666 23.2131 32.5886 23.0846 32.6744C22.956 32.7602 22.8049 32.8059 22.6504 32.8058ZM26.5641 50C26.1322 50 25.7828 49.6505 25.7828 49.2187V41.4068C25.7828 40.975 26.1322 40.6255 26.5641 40.6255C26.9959 40.6255 27.3453 40.975 27.3453 41.4068V49.2187C27.3453 49.6505 26.9959 50 26.5641 50ZM51.5625 9.37749H48.4377C48.0059 9.37749 47.6565 9.02808 47.6565 8.59624V5.47144C47.6565 5.0396 48.0059 4.69019 48.4377 4.69019H51.5625C51.9944 4.69019 52.3438 5.0396 52.3438 5.47144V8.59624C52.3438 9.02808 51.9944 9.37749 51.5625 9.37749ZM49.219 7.81499H50.7813V6.25269H49.219V7.81499Z" fill="black"/>
<path d="M96.091 74.9985H3.90918C3.47734 74.9985 3.12793 74.6491 3.12793 74.2172V14.8459C3.12793 14.4141 3.47734 14.0647 3.90918 14.0647H96.0912C96.523 14.0647 96.8725 14.4141 96.8725 14.8459V74.2172C96.8725 74.3199 96.8522 74.4215 96.813 74.5163C96.7737 74.611 96.7161 74.6972 96.6436 74.7697C96.571 74.8423 96.4848 74.8998 96.39 74.9391C96.2952 74.9783 96.1936 74.9985 96.091 74.9985ZM4.69043 73.436H95.31V15.6272H4.69043V73.436Z" fill="black"/>
<path d="M99.2156 15.6272H0.78418C0.352344 15.6272 0.00292969 15.2778 0.00292969 14.8459V8.59631C0.00292969 8.16448 0.352344 7.81506 0.78418 7.81506H99.2158C99.3184 7.81501 99.42 7.83519 99.5148 7.87443C99.6096 7.91368 99.6958 7.97123 99.7683 8.04378C99.8408 8.11634 99.8984 8.20249 99.9376 8.2973C99.9768 8.3921 99.9969 8.49371 99.9969 8.59631V14.8459C99.9969 14.9485 99.9767 15.0501 99.9375 15.1449C99.8982 15.2397 99.8407 15.3259 99.7681 15.3984C99.6956 15.471 99.6094 15.5285 99.5146 15.5678C99.4198 15.607 99.3182 15.6272 99.2156 15.6272ZM1.56543 14.0647H98.4346V9.37756H1.56543V14.0647Z" fill="black"/>
<path d="M94.5285 12.5023H5.47168C5.03984 12.5023 4.69043 12.1529 4.69043 11.7211C4.69043 11.2892 5.03984 10.9398 5.47168 10.9398H94.5287C94.9605 10.9398 95.31 11.2892 95.31 11.7211C95.31 12.1529 94.9604 12.5023 94.5285 12.5023ZM71.0926 95.3097C70.9713 95.3095 70.8518 95.2813 70.7432 95.2273L49.6506 84.681C49.2646 84.4888 49.1084 84.0187 49.3014 83.6328C49.4943 83.2469 49.9643 83.0928 50.3494 83.2834L71.442 93.8297C71.5598 93.8297 71.6762 93.8564 71.7822 93.9077C71.8883 93.9591 71.9814 94.0337 72.0545 94.1261C72.1276 94.2186 72.1789 94.3263 72.2045 94.4414C72.2301 94.5564 72.2293 94.6757 72.2022 94.7904C72.1751 94.9051 72.1225 95.0122 72.0481 95.1036C71.9738 95.1951 71.8797 95.2686 71.773 95.3185C71.6663 95.3685 71.5496 95.3936 71.4318 95.3921C71.3139 95.3906 71.198 95.3624 71.0926 95.3097ZM77.3422 95.3097C77.2209 95.3095 77.1014 95.2813 76.9928 95.2273L49.6506 81.5562C49.2646 81.364 49.1084 80.8939 49.3014 80.508C49.4943 80.122 49.9643 79.9664 50.3494 80.1586L77.6916 93.8297C77.8094 93.8297 77.9258 93.8564 78.0318 93.9077C78.1379 93.9591 78.231 94.0337 78.3041 94.1261C78.3772 94.2186 78.4285 94.3263 78.4541 94.4414C78.4797 94.5564 78.4789 94.6757 78.4518 94.7904C78.4247 94.9051 78.3721 95.0122 78.2977 95.1036C78.2234 95.1951 78.1294 95.2686 78.0226 95.3185C77.9159 95.3685 77.7992 95.3936 77.6814 95.3921C77.5636 95.3906 77.4476 95.3624 77.3422 95.3097Z" fill="black"/>
<path d="M77.3421 95.3098H71.0925C70.6607 95.3098 70.3113 94.9604 70.3113 94.5285C70.3113 94.0967 70.6607 93.7473 71.0925 93.7473H77.3421C77.774 93.7473 78.1234 94.0967 78.1234 94.5285C78.1234 94.9604 77.774 95.3098 77.3421 95.3098ZM28.9083 95.3098C28.7631 95.3098 28.6208 95.2694 28.4972 95.1931C28.3737 95.1169 28.2738 95.0077 28.2087 94.8779C28.1628 94.7862 28.1354 94.6863 28.1281 94.5839C28.1208 94.4815 28.1337 94.3787 28.1661 94.2814C28.1986 94.184 28.2499 94.094 28.3172 94.0165C28.3844 93.939 28.4663 93.8755 28.5581 93.8297L49.6505 83.2834C49.8359 83.1913 50.0503 83.1763 50.2468 83.2418C50.4432 83.3072 50.6057 83.4478 50.6988 83.6328C50.7447 83.7246 50.7721 83.8245 50.7794 83.9269C50.7867 84.0292 50.7738 84.132 50.7413 84.2294C50.7089 84.3267 50.6576 84.4167 50.5903 84.4942C50.523 84.5717 50.4412 84.6352 50.3493 84.6811L29.257 95.2274C29.1486 95.2811 29.0293 95.3093 28.9083 95.3098ZM22.6587 95.3098C22.5135 95.3098 22.3712 95.2694 22.2476 95.1931C22.1241 95.1169 22.0242 95.0077 21.9591 94.8779C21.9132 94.7862 21.8857 94.6863 21.8784 94.5839C21.8711 94.4815 21.8841 94.3787 21.9165 94.2814C21.949 94.184 22.0003 94.094 22.0676 94.0165C22.1348 93.939 22.2167 93.8755 22.3085 93.8297L49.6505 80.1586C49.8359 80.0661 50.0504 80.0509 50.2469 80.1164C50.4435 80.1819 50.606 80.3228 50.6988 80.508C50.7447 80.5998 50.7721 80.6997 50.7794 80.802C50.7867 80.9044 50.7738 81.0072 50.7413 81.1046C50.7089 81.2019 50.6576 81.2919 50.5903 81.3694C50.523 81.4469 50.4412 81.5104 50.3493 81.5563L23.0073 95.2274C22.899 95.2811 22.7797 95.3093 22.6587 95.3098Z" fill="black"/>
<path d="M28.9078 95.3097H22.6582C22.2264 95.3097 21.877 94.9603 21.877 94.5285C21.877 94.0967 22.2264 93.7472 22.6582 93.7472H28.9078C29.3396 93.7472 29.6891 94.0967 29.6891 94.5285C29.6891 94.9603 29.3396 95.3097 28.9078 95.3097ZM48.4379 82.4199C48.0061 82.4199 47.6566 82.0705 47.6566 81.6386V74.2172C47.6566 73.7853 48.0061 73.4359 48.4379 73.4359C48.8697 73.4359 49.2191 73.7853 49.2191 74.2172V81.6386C49.2191 82.0705 48.8697 82.4199 48.4379 82.4199ZM51.5627 82.4199C51.1309 82.4199 50.7814 82.0705 50.7814 81.6386V74.2172C50.7814 73.7853 51.1309 73.4359 51.5627 73.4359C51.9945 73.4359 52.3439 73.7853 52.3439 74.2172V81.6386C52.3439 82.0705 51.9945 82.4199 51.5627 82.4199ZM51.5627 95.3097C51.1309 95.3097 50.7814 94.9603 50.7814 94.5285V84.7635C50.7814 84.3316 51.1309 83.9822 51.5627 83.9822C51.9945 83.9822 52.3439 84.3316 52.3439 84.7635V94.5285C52.3439 94.9603 51.9945 95.3097 51.5627 95.3097Z" fill="black"/>
<path d="M51.5623 95.3098H48.4375C48.0057 95.3098 47.6562 94.9604 47.6562 94.5286C47.6562 94.0967 48.0057 93.7473 48.4375 93.7473H51.5623C51.9941 93.7473 52.3436 94.0967 52.3436 94.5286C52.3436 94.9604 51.9941 95.3098 51.5623 95.3098Z" fill="black"/>
<path d="M48.4375 95.3098C48.0057 95.3098 47.6562 94.9604 47.6562 94.5285V84.7635C47.6562 84.3316 48.0057 83.9822 48.4375 83.9822C48.8693 83.9822 49.2188 84.3316 49.2188 84.7635V94.5285C49.2188 94.9604 48.8693 95.3098 48.4375 95.3098ZM49.9998 70.3113C49.8972 70.3114 49.7956 70.2912 49.7008 70.252C49.606 70.2127 49.5199 70.1552 49.4473 70.0826C49.3748 70.0101 49.3173 69.9239 49.278 69.8291C49.2388 69.7343 49.2187 69.6327 49.2188 69.5301V19.5332C49.2188 19.1014 49.5682 18.752 49.9998 18.752C50.4316 18.752 50.7811 19.1014 50.7811 19.5332V69.5301C50.7811 69.9619 50.4316 70.3113 49.9998 70.3113ZM58.5932 51.5625C58.1613 51.5625 57.8119 51.2131 57.8119 50.7812V24.2203C57.8119 23.7885 58.1613 23.4391 58.5932 23.4391C59.025 23.4391 59.3744 23.7885 59.3744 24.2203V50.7812C59.3744 51.2131 59.025 51.5625 58.5932 51.5625Z" fill="black"/>
<path d="M88.2788 51.5625H58.5933C58.1614 51.5625 57.812 51.2131 57.812 50.7812C57.812 50.3494 58.1614 50 58.5933 50H88.2788C88.7106 50 89.0601 50.3494 89.0601 50.7812C89.0601 51.2131 88.7106 51.5625 88.2788 51.5625Z" fill="black"/>
<path d="M88.2788 59.3744H58.5933C58.1614 59.3744 57.812 59.025 57.812 58.5932C57.812 58.4906 57.8321 58.389 57.8714 58.2942C57.9106 58.1994 57.9682 58.1133 58.0407 58.0407C58.1133 57.9682 58.1994 57.9107 58.2942 57.8714C58.3891 57.8322 58.4907 57.8121 58.5933 57.8121H88.2788C88.7106 57.8121 89.0601 58.1616 89.0601 58.5932C89.0601 59.025 88.7106 59.3744 88.2788 59.3744Z" fill="black"/>
<path d="M85.1542 62.4993H61.7183C61.2864 62.4993 60.937 62.1499 60.937 61.718C60.937 61.2862 61.2864 60.9368 61.7183 60.9368H85.1542C85.586 60.9368 85.9354 61.2862 85.9354 61.718C85.9354 62.1499 85.586 62.4993 85.1542 62.4993Z" fill="black"/>
<path d="M80.4668 65.6241H66.4051C66.3025 65.6241 66.2009 65.604 66.1061 65.5647C66.0113 65.5255 65.9251 65.4679 65.8526 65.3954C65.7801 65.3228 65.7225 65.2366 65.6833 65.1418C65.6441 65.047 65.6239 64.9454 65.624 64.8428C65.624 64.7402 65.6441 64.6386 65.6834 64.5439C65.7226 64.4491 65.7801 64.363 65.8527 64.2904C65.9252 64.2179 66.0113 64.1603 66.1061 64.1211C66.2009 64.0819 66.3025 64.0617 66.4051 64.0618H80.4668C80.5694 64.0617 80.671 64.0819 80.7658 64.1211C80.8605 64.1603 80.9467 64.2179 81.0192 64.2904C81.0917 64.363 81.1493 64.4491 81.1885 64.5439C81.2277 64.6386 81.2479 64.7402 81.2478 64.8428C81.2478 65.2747 80.8984 65.6241 80.4668 65.6241Z" fill="black"/>
<path d="M41.4067 59.3744H11.7212C11.2894 59.3744 10.9399 59.025 10.9399 58.5932C10.9399 58.4906 10.9601 58.389 10.9993 58.2942C11.0386 58.1994 11.0961 58.1133 11.1687 58.0407C11.2412 57.9682 11.3274 57.9107 11.4222 57.8714C11.517 57.8322 11.6186 57.8121 11.7212 57.8121H41.4067C41.8386 57.8121 42.188 58.1616 42.188 58.5932C42.188 59.025 41.8386 59.3744 41.4067 59.3744Z" fill="black"/>
<path d="M38.2821 62.4993H14.8462C14.4144 62.4993 14.0649 62.1499 14.0649 61.718C14.0649 61.2862 14.4144 60.9368 14.8462 60.9368H38.2821C38.714 60.9368 39.0634 61.2862 39.0634 61.718C39.0634 62.1499 38.714 62.4993 38.2821 62.4993Z" fill="black"/>
<path d="M33.5949 65.6241H19.5332C19.1014 65.6241 18.752 65.2747 18.752 64.8428C18.7519 64.7402 18.7721 64.6386 18.8113 64.5438C18.8506 64.449 18.9081 64.3629 18.9807 64.2904C19.0532 64.2178 19.1394 64.1603 19.2342 64.1211C19.329 64.0818 19.4306 64.0617 19.5332 64.0618H33.5949C33.6975 64.0617 33.7991 64.0819 33.8939 64.1211C33.9887 64.1603 34.0748 64.2179 34.1473 64.2904C34.2199 64.363 34.2774 64.4491 34.3166 64.5439C34.3559 64.6386 34.376 64.7402 34.376 64.8428C34.376 65.2747 34.0266 65.6241 33.5949 65.6241Z" fill="black"/>
<path d="M61.718 45.3127C61.5634 45.3128 61.4123 45.267 61.2838 45.1812C61.1553 45.0954 61.0551 44.9734 60.996 44.8306C60.9368 44.6879 60.9214 44.5308 60.9516 44.3792C60.9818 44.2277 61.0563 44.0885 61.1656 43.9793L70.54 34.6049C70.6876 34.4636 70.8845 34.3858 71.0888 34.388C71.293 34.3902 71.4882 34.4723 71.6327 34.6167C71.7771 34.7611 71.8592 34.9563 71.8615 35.1606C71.8637 35.3648 71.7859 35.5618 71.6447 35.7093L62.2701 45.0838C62.1977 45.1564 62.1117 45.2141 62.0169 45.2533C61.9221 45.2926 61.8205 45.3128 61.718 45.3127Z" fill="black"/>
<path d="M75.7795 40.6256C75.6769 40.6257 75.5753 40.6055 75.4805 40.5662C75.3857 40.5269 75.2996 40.4693 75.2272 40.3967L70.5401 35.7093C70.3988 35.5618 70.321 35.3648 70.3233 35.1606C70.3255 34.9563 70.4077 34.7611 70.5521 34.6167C70.6965 34.4723 70.8918 34.3902 71.096 34.388C71.3002 34.3858 71.4972 34.4636 71.6447 34.6049L76.3319 39.292C76.4411 39.4012 76.5155 39.5404 76.5456 39.6919C76.5757 39.8435 76.5603 40.0005 76.5011 40.1433C76.442 40.286 76.3419 40.408 76.2135 40.4938C76.085 40.5797 75.934 40.6255 75.7795 40.6256Z" fill="black"/>
<path d="M75.7796 40.6256C75.6251 40.6256 75.4741 40.5798 75.3457 40.4939C75.2172 40.4081 75.1171 40.2861 75.058 40.1433C74.9989 40.0006 74.9834 39.8435 75.0135 39.692C75.0437 39.5405 75.118 39.4013 75.2273 39.292L87.7265 26.7928C87.7986 26.7182 87.8848 26.6587 87.9801 26.6177C88.0754 26.5768 88.1779 26.5553 88.2816 26.5544C88.3854 26.5534 88.4883 26.5732 88.5843 26.6125C88.6803 26.6518 88.7675 26.7098 88.8409 26.7831C88.9142 26.8565 88.9722 26.9437 89.0115 27.0397C89.0508 27.1358 89.0706 27.2386 89.0697 27.3424C89.0688 27.4461 89.0472 27.5486 89.0063 27.6439C88.9653 27.7392 88.9058 27.8254 88.8312 27.8975L76.332 40.3967C76.2595 40.4694 76.1734 40.527 76.0786 40.5663C75.9838 40.6056 75.8822 40.6258 75.7796 40.6256Z" fill="black"/>
<path d="M88.2788 31.2511C87.847 31.2511 87.4976 30.9017 87.4976 30.4699V27.3451C87.4976 26.9133 87.847 26.5638 88.2788 26.5638C88.7106 26.5638 89.0601 26.9133 89.0601 27.3451V30.4699C89.0601 30.9017 88.7106 31.2511 88.2788 31.2511Z" fill="black"/>
<path d="M88.2789 28.1263H85.1541C84.7225 28.1263 84.373 27.7769 84.373 27.3451C84.373 26.9133 84.7225 26.5638 85.1541 26.5638H88.2789C88.7107 26.5638 89.0602 26.9133 89.0602 27.3451C89.0602 27.7769 88.7107 28.1263 88.2789 28.1263Z" fill="black"/>
</svg>
