<svg width="20" height="20" viewBox="0 0 20 20" fill="none" xmlns="http://www.w3.org/2000/svg">
<path d="M9.08643 1.72339C5.44454 1.72339 2.47803 4.8177 2.47803 8.61649C2.47803 12.4153 5.44454 15.5096 9.08643 15.5096C10.6701 15.5096 12.1246 14.923 13.2644 13.9492L17.2101 18.0649C17.3759 18.245 17.622 18.3175 17.8536 18.2545C18.0852 18.1915 18.266 18.0029 18.3264 17.7613C18.3868 17.5198 18.3172 17.263 18.1446 17.0902L14.1989 12.9745C15.1324 11.7855 15.6948 10.2684 15.6948 8.61649C15.6948 4.8177 12.7283 1.72339 9.08643 1.72339ZM9.08643 3.10201C12.014 3.10201 14.3731 5.56276 14.3731 8.61649C14.3731 11.6702 12.014 14.131 9.08643 14.131C6.15883 14.131 3.79971 11.6702 3.79971 8.61649C3.79971 5.56276 6.15883 3.10201 9.08643 3.10201Z" fill="white"/>
</svg>
