<svg width="40" height="40" viewBox="0 0 40 40" fill="none" xmlns="http://www.w3.org/2000/svg">
<path fill-rule="evenodd" clip-rule="evenodd" d="M20.0001 22.3333C13.3501 22.3333 7.88363 27.4795 7.37249 34C7.32932 34.5506 7.78116 34.9999 8.33345 34.9999C8.88573 34.9999 9.32852 34.5508 9.37983 34.0009C9.88507 28.5857 14.4551 24.3333 20.0001 24.3333C25.5452 24.3333 30.1152 28.5857 30.6204 34.0009C30.6717 34.5508 31.1145 34.9999 31.6668 34.9999C32.2191 34.9999 32.6709 34.5506 32.6277 34C32.1166 27.4795 26.6501 22.3333 20.0001 22.3333Z" fill="#939393"/>
<path d="M20.0002 18.3333C23.6768 18.3333 26.6668 15.3433 26.6668 11.6667C26.6668 7.99 23.6768 5 20.0002 5C16.3235 5 13.3335 7.99 13.3335 11.6667C13.3335 15.3433 16.3235 18.3333 20.0002 18.3333" stroke="#939393" stroke-width="2"/>
<rect x="0.5" y="0.5" width="39" height="39" rx="19.5" stroke="#939393"/>
</svg>
